<?xml version="1.0" encoding="utf-8"?>
<!-- Generator: Adobe Illustrator 23.0.1, SVG Export Plug-In . SVG Version: 6.00 Build 0)  -->
<svg version="1.1" id="Layer_1" xmlns="http://www.w3.org/2000/svg" xmlns:xlink="http://www.w3.org/1999/xlink" x="0px" y="0px"
	 viewBox="0 0 523.35 679.62" style="enable-background:new 0 0 523.35 679.62;" xml:space="preserve">
<style type="text/css">
	.st0{opacity:0.49;fill:#CBCBCB;}
	.st1{fill:#F8F8F8;}
	.st2{fill:#EC65B7;}
	.st3{fill:#CBCBCB;}
	.st4{fill:#F3E07C;}
</style>
<g>
	<path class="st0" d="M466.96,679.62H16.83c-9.3,0-16.84-7.54-16.84-16.84V56.49c0-9.3,7.54-16.84,16.84-16.84h450.13
		c9.3,0,16.84,7.54,16.84,16.84v606.3C483.8,672.09,476.26,679.62,466.96,679.62z"/>
	<path class="st1" d="M506.52,640.07H56.38c-9.3,0-16.84-7.54-16.84-16.84V16.94c0-9.3,7.54-16.84,16.84-16.84h450.13
		c9.3,0,16.84,7.54,16.84,16.84v606.3C523.35,632.53,515.82,640.07,506.52,640.07z"/>
	<path class="st2" d="M374.59,128.71c-44.66-44.66-89.31,0-89.31,0s-44.66-44.66-89.31,0c-42.96,42.96,19.41,121.81,81.91,164.55
		c4.47,3.06,10.33,3.06,14.8,0C355.18,250.52,417.55,171.66,374.59,128.71z"/>
	<path class="st3" d="M399.74,365.51H163.16c-1.05,0-1.89-0.85-1.89-1.89v-17.14c0-1.05,0.85-1.89,1.89-1.89h236.59
		c1.05,0,1.89,0.85,1.89,1.89v17.14C401.64,364.66,400.79,365.51,399.74,365.51z"/>
	<path class="st3" d="M357.15,422.67H213.4c-1.03,0-1.87-0.84-1.87-1.87v-17.18c0-1.03,0.84-1.87,1.87-1.87h143.75
		c1.03,0,1.87,0.84,1.87,1.87v17.18C359.02,421.83,358.19,422.67,357.15,422.67z"/>
	<path class="st4" d="M399.4,545.66H163.51c-1.24,0-2.24-1-2.24-2.24v-57.27c0-1.24,1-2.24,2.24-2.24H399.4c1.24,0,2.24,1,2.24,2.24
		v57.27C401.64,544.65,400.63,545.66,399.4,545.66z"/>
</g>
</svg>
