<?xml version="1.0" encoding="utf-8"?>
<!-- Generator: Adobe Illustrator 23.0.1, SVG Export Plug-In . SVG Version: 6.00 Build 0)  -->
<svg version="1.1" id="Layer_1" xmlns="http://www.w3.org/2000/svg" xmlns:xlink="http://www.w3.org/1999/xlink" x="0px" y="0px"
	 viewBox="0 0 806.21 679.62" style="enable-background:new 0 0 806.21 679.62;" xml:space="preserve">
<style type="text/css">
	.st0{opacity:0.49;fill:#CBCBCB;}
	.st1{fill:#F8F8F8;}
	.st2{fill:#29CE44;}
	.st3{fill:#FFB71D;}
	.st4{fill:#FF6158;}
	.st5{fill:#CBCBCB;}
	.st6{fill:#EC65B7;}
</style>
<g>
	<path class="st0" d="M749.81,679.62H16.84c-9.3,0-16.84-7.54-16.84-16.84V56.4c0-9.3,7.54-16.84,16.84-16.84h732.97
		c9.3,0,16.84,7.54,16.84,16.84v606.39C766.65,672.09,759.11,679.62,749.81,679.62z"/>
	<path class="st1" d="M789.37,640.07H56.4c-9.3,0-16.84-7.54-16.84-16.84V16.84C39.56,7.54,47.1,0,56.4,0h732.97
		c9.3,0,16.84,7.54,16.84,16.84v606.39C806.21,632.53,798.67,640.07,789.37,640.07z"/>
	<path class="st2" d="M243.26,135.39h-21.09c-0.78,0-1.42-0.64-1.42-1.42v-21.09c0-0.78,0.64-1.42,1.42-1.42h21.09
		c0.78,0,1.42,0.64,1.42,1.42v21.09C244.68,134.75,244.05,135.39,243.26,135.39z"/>
	<path class="st3" d="M192.22,135.39h-21.09c-0.78,0-1.42-0.64-1.42-1.42v-21.09c0-0.78,0.64-1.42,1.42-1.42h21.09
		c0.78,0,1.42,0.64,1.42,1.42v21.09C193.64,134.75,193.01,135.39,192.22,135.39z"/>
	<path class="st4" d="M140.41,135.39h-21.09c-0.78,0-1.42-0.64-1.42-1.42v-21.09c0-0.78,0.64-1.42,1.42-1.42h21.09
		c0.78,0,1.42,0.64,1.42,1.42v21.09C141.83,134.75,141.2,135.39,140.41,135.39z"/>
	<path class="st5" d="M349.75,203.27H119.33c-0.78,0-1.42-0.64-1.42-1.42v-21.09c0-0.78,0.64-1.42,1.42-1.42h230.42
		c0.78,0,1.42,0.64,1.42,1.42v21.09C351.17,202.64,350.53,203.27,349.75,203.27z"/>
	<path class="st5" d="M306.36,258.66H119.33c-0.78,0-1.42-0.64-1.42-1.42v-21.09c0-0.78,0.64-1.42,1.42-1.42h187.04
		c0.78,0,1.42,0.64,1.42,1.42v21.09C307.78,258.02,307.15,258.66,306.36,258.66z"/>
	<path class="st6" d="M192.72,528.6h-72.04c-1.53,0-2.77-1.24-2.77-2.77V366c0-1.53,1.24-2.77,2.77-2.77h72.04
		c1.53,0,2.77,1.24,2.77,2.77v159.83C195.49,527.36,194.25,528.6,192.72,528.6z"/>
	<path class="st6" d="M299.39,528.6h-72.04c-1.53,0-2.77-1.24-2.77-2.77V332.06c0-1.53,1.24-2.77,2.77-2.77h72.04
		c1.53,0,2.77,1.24,2.77,2.77v193.77C302.17,527.36,300.93,528.6,299.39,528.6z"/>
	<path class="st6" d="M404.03,528.6H332c-1.53,0-2.77-1.24-2.77-2.77V312.92c0-1.53,1.24-2.77,2.77-2.77h72.04
		c1.53,0,2.77,1.24,2.77,2.77v212.91C406.81,527.36,405.56,528.6,404.03,528.6z"/>
	<path class="st6" d="M510.71,528.6h-72.04c-1.53,0-2.77-1.24-2.77-2.77v-297.9c0-1.53,1.24-2.77,2.77-2.77h72.04
		c1.53,0,2.77,1.24,2.77,2.77v297.9C513.48,527.36,512.24,528.6,510.71,528.6z"/>
	<path class="st6" d="M618.41,528.6h-72.04c-1.53,0-2.77-1.24-2.77-2.77V194.09c0-1.53,1.24-2.77,2.77-2.77h72.04
		c1.53,0,2.77,1.24,2.77,2.77v331.74C621.18,527.36,619.94,528.6,618.41,528.6z"/>
	<path class="st6" d="M725.09,528.6h-72.04c-1.53,0-2.77-1.24-2.77-2.77V182.12c0-1.53,1.24-2.77,2.77-2.77h72.04
		c1.53,0,2.77,1.24,2.77,2.77v343.71C727.86,527.36,726.62,528.6,725.09,528.6z"/>
</g>
</svg>
