<?xml version="1.0" encoding="utf-8"?>
<!-- Generator: Adobe Illustrator 23.0.1, SVG Export Plug-In . SVG Version: 6.00 Build 0)  -->
<svg version="1.1" id="Layer_1" xmlns="http://www.w3.org/2000/svg" xmlns:xlink="http://www.w3.org/1999/xlink" x="0px" y="0px"
	 viewBox="0 0 806.21 654.18" style="enable-background:new 0 0 806.21 654.18;" xml:space="preserve">
<style type="text/css">
	.st0{opacity:0.49;fill:#CBCBCB;}
	.st1{fill:#F8F8F8;}
	.st2{fill:#CBCBCB;}
	.st3{fill:#6D57D6;}
	.st4{fill:#FDFBFC;}
</style>
<g>
	<path class="st0" d="M743.88,654.18H16.84c-9.3,0-16.84-7.54-16.84-16.84V62.33c0-9.3,7.54-16.84,16.84-16.84h727.04
		c9.3,0,16.84,7.54,16.84,16.84v575.01C760.72,646.64,753.18,654.18,743.88,654.18z"/>
	<path class="st1" d="M789.37,608.69H62.33c-9.3,0-16.84-7.54-16.84-16.84V16.84C45.49,7.54,53.03,0,62.33,0h727.04
		c9.3,0,16.84,7.54,16.84,16.84v575.01C806.21,601.15,798.67,608.69,789.37,608.69z"/>
	<path class="st2" d="M529.86,442.07H334.97c-0.65,0-1.18-0.53-1.18-1.18v-23.4c0-0.65,0.53-1.18,1.18-1.18h194.89
		c0.65,0,1.18,0.53,1.18,1.18v23.4C531.04,441.54,530.51,442.07,529.86,442.07z"/>
	<path class="st2" d="M581.69,508.03H283.14c-0.65,0-1.18-0.53-1.18-1.18v-23.4c0-0.65,0.53-1.18,1.18-1.18h298.54
		c0.65,0,1.18,0.53,1.18,1.18v23.4C582.86,507.5,582.33,508.03,581.69,508.03z"/>
	<path class="st3" d="M590.18,360.33H261.52c-3.51,0-6.39-2.87-6.39-6.39V67.36c0-3.51,2.87-6.39,6.39-6.39h328.66
		c3.51,0,6.39,2.87,6.39,6.39v286.58C596.56,357.46,593.69,360.33,590.18,360.33z"/>
	<g>
		<g>
			<g>
				<g>
					<path class="st4" d="M528.23,246.66c-1.21-0.57-2.61-0.6-3.85-0.09h0.05c-51.24,21.19-109.95-3.16-131.15-54.4
						c-10.75-25.99-10.11-55.29,1.78-80.78c1.12-2.36,0.11-5.18-2.25-6.29c-1.21-0.57-2.61-0.6-3.85-0.09
						c-56.17,23.07-82.99,87.31-59.92,143.47s87.31,82.99,143.47,59.92c25.62-10.52,46.32-30.32,57.97-55.45
						C531.6,250.59,530.59,247.77,528.23,246.66z"/>
				</g>
			</g>
		</g>
		<circle class="st4" cx="447.3" cy="128.76" r="14.88"/>
		<circle class="st4" cx="468.21" cy="175.31" r="9.59"/>
		<circle class="st4" cx="515.16" cy="151" r="12.11"/>
	</g>
</g>
</svg>
