<?xml version="1.0"?>
<svg xmlns="http://www.w3.org/2000/svg" height="512px" viewBox="0 -16 512 512" width="512px"><path d="m316 120c-5.257812 0-10.308594.90625-15 2.570312v-122.570312h-90v122.570312c-4.691406-1.664062-9.742188-2.570312-15-2.570312-108.074219 0-196 87.476562-196 195v120c0 24.8125 20.1875 45 45 45 108.074219 0 196-87.476562 196-195v-45h30v45c0 107.523438 87.925781 195 196 195 24.8125 0 45-20.1875 45-45v-120c0-107.523438-87.925781-195-196-195zm166 315c0 8.269531-6.730469 15-15 15-91.53125 0-166-74.019531-166-165v-28.921875l61 48.480469v70.441406h30v-46.601562l35.667969 28.34375 18.664062-23.484376-43.054687-34.21875 42.722656-32.039062-18-24-49 36.75-87.765625-69.75h-70.46875l-86.121094 68.441406-51.042969-35.730468-17.203124 24.578124 43.746093 30.621094-44.480469 35.347656 18.667969 23.484376 35.667969-28.34375v46.601562h30v-70.441406l61-48.480469v28.921875c0 90.980469-74.46875 165-166 165-8.269531 0-15-6.730469-15-15v-120c0-90.980469 74.46875-165 166-165 8.269531 0 15 6.730469 15 15h30v-135h30v134.902344h30c0-8.273438 6.730469-14.902344 15-14.902344 91.53125 0 166 74.019531 166 165zm0 0" fill="#FFFFFF"/></svg>
