<?xml version="1.0" encoding="utf-8"?>
<!-- Generator: Adobe Illustrator 23.0.0, SVG Export Plug-In . SVG Version: 6.00 Build 0)  -->
<svg version="1.1" id="Layer_1" xmlns="http://www.w3.org/2000/svg" xmlns:xlink="http://www.w3.org/1999/xlink" x="0px" y="0px"
	 viewBox="0 0 512 512" style="enable-background:new 0 0 512 512;" xml:space="preserve">
<style type="text/css">
	.st0{fill:#201F3F;}
</style>
<path class="st0" d="M316,136c-5.3,0-10.3,0.9-15,2.6V16h-90v122.6c-4.7-1.7-9.7-2.6-15-2.6C87.9,136,0,223.5,0,331v120
	c0,24.8,20.2,45,45,45c108.1,0,196-87.5,196-195v-45h30v45c0,107.5,87.9,195,196,195c24.8,0,45-20.2,45-45V331
	C512,223.5,424.1,136,316,136z M482,451c0,8.3-6.7,15-15,15c-91.5,0-166-74-166-165v-28.9l61,48.5V391h30v-46.6l35.7,28.3l18.7-23.5
	L403.3,315l42.7-32l-18-24l-49,36.8L291.2,226h-70.5l-86.1,68.4l-51-35.7l-17.2,24.6l43.7,30.6l-44.5,35.3l18.7,23.5l35.7-28.3V391
	h30v-70.4l61-48.5V301c0,91-74.5,165-166,165c-8.3,0-15-6.7-15-15V331c0-91,74.5-165,166-165c8.3,0,15,6.7,15,15h30V46h30v134.9h30
	c0-8.3,6.7-14.9,15-14.9c91.5,0,166,74,166,165V451z"/>
</svg>
