<?xml version="1.0" encoding="utf-8"?>
<!-- Generator: Adobe Illustrator 22.1.0, SVG Export Plug-In . SVG Version: 6.00 Build 0)  -->
<svg version="1.1" id="Layer_1" xmlns:sketch="http://www.bohemiancoding.com/sketch/ns"
	 xmlns="http://www.w3.org/2000/svg" xmlns:xlink="http://www.w3.org/1999/xlink" x="0px" y="0px" viewBox="0 0 100 60"
	 style="enable-background:new 0 0 100 60;" xml:space="preserve">
<style type="text/css">
	.st0{fill:#D4D4D4;}
	.st1{fill:#FFFFFF;}
</style>
<title>Path 2</title>
<desc>Created with Sketch.</desc>
<path sketch:type="MSShapeGroup" class="st0" d="M72,14.5c6.9,4.1,12.6,9.8,16.7,17c4.1,7.1,6.1,15.1,6.2,23.1c0,1.2,1,2.3,2.2,2.3
	c1.2,0,2.2-1,2.2-2.3c0-8.8-2.3-17.6-6.8-25.4C88.1,21.4,81.8,15,74.2,10.6C58.8,1.5,39.7,1.2,24,10.3c-0.3,0.2-0.6,0.4-0.8,0.7
	c-6.3,4.3-11.6,10-15.5,16.9C3.2,35.7,1,44.4,0.9,53.3c0,1.2,1,2.3,2.2,2.3s2.2-1,2.2-2.3c0-8.1,2.1-16,6.2-23.1
	c4.1-7.1,9.8-12.9,16.7-17l0.3-0.2C42.4,6,58.7,6.6,72,14.5z"/>
<path sketch:type="MSShapeGroup" class="st1" d="M40.8,51.9H12.1c-0.5,0-0.8-0.4-0.8-0.8v-2.6c0-0.5,0.4-0.8,0.8-0.8h28.7
	c0.9-3.7,4.2-6.4,8.1-6.4c3.9,0,7.2,2.7,8.1,6.4h5.7c0.5,0,0.8,0.4,0.8,0.8V51c0,0.5-0.4,0.8-0.8,0.8h-5.7c-0.9,3.7-4.2,6.4-8.1,6.4
	C45.1,58.3,41.8,55.6,40.8,51.9z M53.1,49.7c0-2.3-1.9-4.3-4.2-4.3c-2.3,0-4.2,1.9-4.2,4.3c0,2.4,1.9,4.3,4.2,4.3
	C51.3,54,53.1,52.1,53.1,49.7z"/>
</svg>
