<?xml version="1.0" encoding="utf-8"?>
<!-- Generator: Adobe Illustrator 22.1.0, SVG Export Plug-In . SVG Version: 6.00 Build 0)  -->
<svg version="1.1" id="Layer_1" xmlns="http://www.w3.org/2000/svg" xmlns:xlink="http://www.w3.org/1999/xlink" x="0px" y="0px"
	 viewBox="0 0 512 512" style="enable-background:new 0 0 512 512;" xml:space="preserve">
<style type="text/css">
	.st0{fill:#F6E16A;}
	.st1{fill:#FF57BB;}
	.st2{fill:#B362F1;}
	.st3{fill:#FFFFFF;}
</style>
<circle class="st0" cx="256" cy="256" r="16.4"/>
<path class="st1" d="M394.6,256c0-8.3,6.7-15,15-15h15.7c-3.1-35.6-17.3-68.1-39-94.1l-11,11c-2.9,2.9-6.8,4.4-10.6,4.4
	c-3.8,0-7.7-1.5-10.6-4.4c-5.9-5.9-5.9-15.4,0-21.2l11-11c-25.9-21.8-58.4-35.9-94.1-39v15.7c0,8.3-6.7,15-15,15s-15-6.7-15-15V86.7
	c-35.6,3.1-68.1,17.3-94.1,39l11,11c5.9,5.9,5.9,15.4,0,21.2c-2.9,2.9-6.8,4.4-10.6,4.4c-3.8,0-7.7-1.5-10.6-4.4l-11-11
	c-21.8,25.9-35.9,58.4-39,94.1h15.7c8.3,0,15,6.7,15,15s-6.7,15-15,15H86.7c7.6,86.7,80.6,155,169.3,155s161.7-68.3,169.3-155h-15.7
	C401.4,271,394.6,264.3,394.6,256z M256,302.4c-25.6,0-46.4-20.8-46.4-46.4c0-20.3,13.1-37.6,31.4-43.9v-50.2c0-8.3,6.7-15,15-15
	s15,6.7,15,15v50.2c18.2,6.2,31.4,23.5,31.4,43.9C302.4,281.6,281.6,302.4,256,302.4z"/>
<path class="st2" d="M256,0C114.6,0,0,114.6,0,256s114.6,256,256,256s256-114.6,256-256S397.4,0,256,0z M256,456
	c-110.3,0-200-89.7-200-200c0-54.5,21.9-104,57.4-140.1c0.4-0.5,0.8-0.9,1.2-1.3s0.9-0.8,1.3-1.2C152,77.9,201.5,56,256,56
	s104,21.9,140.1,57.4c0.5,0.4,0.9,0.8,1.3,1.2s0.8,0.9,1.2,1.3C434.1,152,456,201.5,456,256C456,366.3,366.3,456,256,456z"/>
<path class="st3" d="M398.6,115.9c-0.4-0.5-0.8-0.9-1.2-1.3s-0.9-0.8-1.3-1.2C360,77.9,310.5,56,256,56s-104,21.9-140.1,57.4
	c-0.5,0.4-0.9,0.8-1.3,1.2s-0.8,0.9-1.2,1.3C77.9,152,56,201.5,56,256c0,110.3,89.7,200,200,200s200-89.7,200-200
	C456,201.5,434.1,152,398.6,115.9z M256,426c-88.7,0-161.7-68.3-169.3-155h15.7c8.3,0,15-6.7,15-15s-6.7-15-15-15H86.7
	c3.1-35.6,17.3-68.1,39-94.1l11,11c2.9,2.9,6.8,4.4,10.6,4.4c3.8,0,7.7-1.5,10.6-4.4c5.9-5.9,5.9-15.4,0-21.2l-11-11
	c25.9-21.8,58.4-35.9,94.1-39v15.7c0,8.3,6.7,15,15,15s15-6.7,15-15V86.7c35.6,3.1,68.1,17.3,94.1,39l-11,11
	c-5.9,5.9-5.9,15.4,0,21.2c2.9,2.9,6.8,4.4,10.6,4.4c3.8,0,7.7-1.5,10.6-4.4l11-11c21.8,25.9,35.9,58.4,39,94.1h-15.7
	c-8.3,0-15,6.7-15,15c0,8.3,6.7,15,15,15h15.7C417.7,357.7,344.7,426,256,426z"/>
<path class="st3" d="M271,212.1v-50.2c0-8.3-6.7-15-15-15s-15,6.7-15,15v50.2c-18.2,6.2-31.4,23.5-31.4,43.9
	c0,25.6,20.8,46.4,46.4,46.4s46.4-20.8,46.4-46.4C302.4,235.7,289.2,218.4,271,212.1z M256,272.4c-9,0-16.4-7.3-16.4-16.4
	s7.3-16.4,16.4-16.4s16.4,7.3,16.4,16.4S265,272.4,256,272.4z"/>
</svg>
