<?xml version="1.0" encoding="utf-8"?>
<!-- Generator: Adobe Illustrator 23.0.0, SVG Export Plug-In . SVG Version: 6.00 Build 0)  -->
<svg version="1.1" id="Layer_1" xmlns="http://www.w3.org/2000/svg" xmlns:xlink="http://www.w3.org/1999/xlink" x="0px" y="0px"
	 viewBox="0 0 512 512" style="enable-background:new 0 0 512 512;" xml:space="preserve">
<style type="text/css">
	.st0{fill:#201F3F;}
</style>
<path class="st0" d="M7.7,372.5l35.5,8.6c0.8,0.2,1.6,0.3,2.3,0.3h202.7c5.5,0,10-4.5,10-10V102c0-5.5-4.5-10-10-10s-10,4.5-10,10
	v156.3h-9.6c-19.3,0-38.5-4.3-56-12.4l-8.5-144.4c-0.3-5.5-5.1-9.7-10.6-9.4c-5.5,0.3-9.7,5.1-9.4,10.6l8.4,143.1l-69.2,28.6
	c-1.9,0.8-4,1.4-6,1.8c0,0-0.1,0-0.1,0c-1.9,0.4-3.9,0.6-5.9,0.6c0,0,0,0,0,0l-15.3,0c0,0,0,0-0.1,0c-22,0-41.6,13.9-48.9,34.7
	l-6.4,18.2c-0.4,1.1-0.6,2.2-0.6,3.3c0,0,0,0,0,0v29.9C0,367.4,3.2,371.4,7.7,372.5z M46.7,361.3L20,354.9v-9.1l22.2,5.8
	c0.8,0.2,1.7,0.3,2.5,0.3h193.4v9.4H46.7z M25.8,317.9c4.5-12.7,16.6-21.3,30.1-21.3h0l15.3,0h0.1c1.4,0,2.9-0.1,4.3-0.2L91.2,312
	c2,1.9,4.5,2.9,7.1,2.9s5.1-1,7.1-2.9c3.9-3.9,3.9-10.2,0-14.1l-7.8-7.8l12.5-5.2l15.7,15.7c2,2,4.5,2.9,7.1,2.9s5.1-1,7.1-2.9
	c3.9-3.9,3.9-10.2,0-14.1l-9.8-9.8l9.4-3.9l15.5,15.5c2,2,4.5,2.9,7.1,2.9s5.1-1,7.1-2.9c3.9-3.9,3.9-10.2,0-14.1l-9.6-9.6l3.1-1.3
	c20.5,9.9,43.2,15.1,66,15.1h9.6v53.6H46l-23-6L25.8,317.9z"/>
<path class="st0" d="M272.5,375c0.2,1.1,0.6,2.2,1.2,3.2c0,0,0,0,0,0l15,25.9c1.8,3.2,5.2,5,8.7,5c0.9,0,1.9-0.1,2.8-0.4l35-10.3
	c0.8-0.2,1.5-0.5,2.2-0.9L499,304c6-3.5,10.3-9.1,12.1-15.8s0.9-13.7-2.6-19.7l-6.7-11.6l-36.4-63L415.4,59.5
	c-1.9-5.2-7.7-7.8-12.9-5.9c-5.2,1.9-7.8,7.7-5.9,12.9L444,193.7l-9.7,5.6c-16.4,9.4-34.8,15.3-53.6,17.1L328,97.9
	c-2.2-5-8.2-7.3-13.2-5.1s-7.3,8.2-5.1,13.2L363,225.5l-46.3,60.2c-1.3,1.7-2.7,3.2-4.3,4.5c0,0-0.1,0.1-0.1,0.1
	c-1.5,1.3-3.1,2.5-4.9,3.5l-13.3,7.6c-19.1,11-29.2,32.9-25.1,54.5L272.5,375z M491.8,283.1c-0.4,1.6-1.4,2.8-2.8,3.7l-160.6,92.7
	l-26.3,7.8l-4.5-7.9l22.2-6.1c0.8-0.2,1.6-0.6,2.3-1l167.5-96.7l1.7,2.9C492,279.9,492.2,281.5,491.8,283.1z M304.1,318.8l13.3-7.6
	c1.3-0.7,2.5-1.5,3.7-2.3l21.3,5.7c0.9,0.2,1.7,0.3,2.6,0.3c4.4,0,8.5-2.9,9.7-7.4c1.4-5.3-1.7-10.8-7.1-12.2l-10.7-2.9l8.2-10.7
	l21.4,5.7c0.9,0.2,1.7,0.3,2.6,0.3c4.4,0,8.5-2.9,9.7-7.4c1.4-5.3-1.7-10.8-7.1-12.2l-13.4-3.6l6.2-8.1l21.2,5.7
	c0.9,0.2,1.7,0.3,2.6,0.3c4.4,0,8.5-2.9,9.7-7.4c1.4-5.3-1.7-10.8-7.1-12.2l-13.2-3.5l2.1-2.7c22.7-1.7,45-8.6,64.7-20l8.3-4.8
	l26.8,46.4l-166.4,96.1l-22.9,6.3l-1.6-8.3C286.1,339,292.3,325.6,304.1,318.8z"/>
<path class="st0" d="M108.7,422.9H10c-5.5,0-10,4.5-10,10c0,5.5,4.5,10,10,10h98.7c5.5,0,10-4.5,10-10
	C118.7,427.4,114.2,422.9,108.7,422.9z"/>
<path class="st0" d="M159,422.9c-2.6,0-5.2,1.1-7.1,2.9c-1.9,1.9-2.9,4.4-2.9,7.1c0,2.6,1.1,5.2,2.9,7.1c1.9,1.9,4.4,2.9,7.1,2.9
	c2.6,0,5.2-1.1,7.1-2.9s2.9-4.4,2.9-7.1c0-2.6-1.1-5.2-2.9-7.1S161.6,422.9,159,422.9z"/>
<path class="st0" d="M502,399.8h-98.7c-5.5,0-10,4.5-10,10c0,5.5,4.5,10,10,10H502c5.5,0,10-4.5,10-10
	C512,404.3,507.5,399.8,502,399.8z"/>
<path class="st0" d="M354.7,439.9H256c-5.5,0-10,4.5-10,10c0,5.5,4.5,10,10,10h98.7c5.5,0,10-4.5,10-10
	C364.7,444.4,360.2,439.9,354.7,439.9z"/>
</svg>
