<?xml version="1.0" encoding="utf-8"?>
<!-- Generator: Adobe Illustrator 23.0.0, SVG Export Plug-In . SVG Version: 6.00 Build 0)  -->
<svg version="1.1" id="Layer_1" xmlns="http://www.w3.org/2000/svg" xmlns:xlink="http://www.w3.org/1999/xlink" x="0px" y="0px"
	 viewBox="0 0 511 511" style="enable-background:new 0 0 511 511;" xml:space="preserve">
<style type="text/css">
	.st0{fill:#201F3F;}
</style>
<path class="st0" d="M346,375.2H128.7c-5.5,0-10-4.5-10-10v-222c0-5.5,4.5-10,10-10H346c5.5,0,10,4.5,10,10v222
	C356,370.8,351.6,375.2,346,375.2z M138.7,355.3h197.4V153.2H138.7V355.3z"/>
<path class="st0" d="M237.4,335c-44.5,0-80.8-36.2-80.8-80.8c0-44.5,36.2-80.8,80.8-80.8s80.8,36.2,80.8,80.8
	C318.1,298.8,281.9,335,237.4,335z M237.4,193.4c-33.5,0-60.8,27.3-60.8,60.8s27.3,60.8,60.8,60.8s60.8-27.3,60.8-60.8
	S270.9,193.4,237.4,193.4z"/>
<path class="st0" d="M222.3,297.3c-3.4,0-6.7-0.8-9.8-2.6c-6.3-3.5-10.2-10.2-10.2-17.4v-46.2c0-7.2,3.9-13.8,10.2-17.4
	c6.3-3.5,14-3.4,20.1,0.3l38.1,23.1c6,3.6,9.6,10,9.6,17.1s-3.6,13.4-9.6,17.1l-38.1,23.1C229.5,296.3,225.9,297.3,222.3,297.3z
	 M222.3,231.2l0,46.1l38.1-23.1c0,0,0,0,0,0L222.3,231.2z M265.6,262.8L265.6,262.8L265.6,262.8z"/>
<path class="st0" d="M422.8,220.8c5.5,0,10-4.5,10-10v-54.6c0-5.5-4.5-10-10-10h-26.9v-15.5c0-20.5-16.7-37.3-37.3-37.3h-19.6V24.2
	c0-13.3-10.9-24.2-24.2-24.2h-155c-13.3,0-24.2,10.9-24.2,24.2v69.2h-19.6c-20.5,0-37.3,16.7-37.3,37.3v247.2
	c0,20.5,16.7,37.3,37.3,37.3h19.6v71.7c0,13.3,10.9,24.2,24.2,24.2h155c13.3,0,24.2-10.9,24.2-24.2v-71.7h19.6
	c20.5,0,37.3-16.7,37.3-37.3v-64.1h26.9c5.5,0,10-4.5,10-10v-54.6c0-5.5-4.5-10-10-10h-26.9v-18.4H422.8z M412.8,166.1v34.7h-16.9
	v-34.7H412.8z M155.6,79.8h92.1c5.5,0,10-4.5,10-10s-4.5-10-10-10h-92.1V24.2c0-2.3,1.9-4.2,4.2-4.2h155c2.3,0,4.2,1.9,4.2,4.2v69.2
	H155.6V79.8z M319.1,486.8c0,2.3-1.9,4.2-4.2,4.2h-155c-2.3,0-4.2-1.9-4.2-4.2v-71.7h163.5V486.8z M375.9,377.9
	c0,9.5-7.8,17.3-17.3,17.3H116.1c-9.5,0-17.3-7.8-17.3-17.3V130.7c0-9.5,7.8-17.3,17.3-17.3h242.5c9.5,0,17.3,7.8,17.3,17.3V377.9z
	 M412.8,259.1v34.7h-16.9v-34.7H412.8z"/>
<path class="st0" d="M290,79.8c-0.7,0-1.3-0.1-1.9-0.2c-0.6-0.1-1.3-0.3-1.9-0.6c-0.6-0.2-1.2-0.6-1.7-0.9c-0.5-0.4-1.1-0.8-1.5-1.2
	c-1.9-1.9-2.9-4.4-2.9-7.1c0-0.7,0.1-1.3,0.2-2c0.1-0.6,0.3-1.3,0.6-1.9c0.2-0.6,0.5-1.2,0.9-1.7c0.4-0.5,0.8-1.1,1.2-1.5
	c0.5-0.5,1-0.9,1.5-1.2c0.5-0.4,1.1-0.7,1.7-0.9c0.6-0.2,1.2-0.4,1.9-0.6c1.3-0.3,2.6-0.3,3.9,0c0.6,0.1,1.3,0.3,1.9,0.6
	c0.6,0.2,1.2,0.5,1.7,0.9c0.5,0.4,1.1,0.8,1.5,1.2c0.5,0.5,0.9,1,1.2,1.5c0.4,0.5,0.7,1.1,0.9,1.7c0.2,0.6,0.4,1.2,0.6,1.9
	c0.1,0.6,0.2,1.3,0.2,2c0,2.6-1.1,5.2-2.9,7.1c-0.5,0.5-1,0.9-1.5,1.2c-0.5,0.4-1.1,0.7-1.7,0.9c-0.6,0.2-1.2,0.4-1.9,0.6
	C291.3,79.7,290.6,79.8,290,79.8z"/>
</svg>
