<?xml version="1.0" encoding="utf-8"?>
<!-- Generator: Adobe Illustrator 22.1.0, SVG Export Plug-In . SVG Version: 6.00 Build 0)  -->
<svg version="1.1" id="Layer_1" xmlns="http://www.w3.org/2000/svg" xmlns:xlink="http://www.w3.org/1999/xlink" x="0px" y="0px"
	 viewBox="0 0 292 168" style="enable-background:new 0 0 292 168;" xml:space="preserve">
<style type="text/css">
	.st0{fill:#F6E16A;}
	.st1{fill:#FF57BB;}
	.st2{fill:#B362F1;}
	.st3{fill:#201F3F;}
	.st4{font-family:'Nunito-Bold';}
	.st5{font-size:36px;}
</style>
<path class="st0" d="M149.6,61.5h18c2,0,3.7,1.7,3.7,3.7v0.5c0,2-1.7,3.7-3.7,3.7h-18c-2,0-3.7-1.7-3.7-3.7v-0.5
	C145.9,63.2,147.6,61.5,149.6,61.5z"/>
<path class="st1" d="M158.9,51.4h8.8c2,0,3.7,1.7,3.7,3.7v0.5c0,2-1.7,3.7-3.7,3.7h-8.8c-2,0-3.7-1.7-3.7-3.7v-0.5
	C155.2,53,156.8,51.4,158.9,51.4z"/>
<path class="st2" d="M161,71.8h6.6c2,0,3.7,1.7,3.7,3.7v0.5c0,2-1.7,3.7-3.7,3.7H161c-2,0-3.7-1.7-3.7-3.7v-0.5
	C157.3,73.5,159,71.8,161,71.8z"/>
<path class="st1" d="M151.5,79.8h-12.8c-2,0-3.7-1.7-3.7-3.7v-0.5c0-2,1.7-3.7,3.7-3.7h12.8c2,0,3.7,1.7,3.7,3.7v0.5
	C155.2,78.1,153.5,79.8,151.5,79.8z"/>
<path class="st2" d="M142.3,47.3h-18c-2,0-3.7-1.7-3.7-3.7v-0.5c0-2,1.7-3.7,3.7-3.7h18c2,0,3.7,1.7,3.7,3.7v0.5
	C146,45.6,144.3,47.3,142.3,47.3z"/>
<path class="st0" d="M133.1,57.5h-8.8c-2,0-3.7-1.7-3.7-3.7v-0.5c0-2,1.7-3.7,3.7-3.7h8.8c2,0,3.7,1.7,3.7,3.7v0.5
	C136.8,55.8,135.1,57.5,133.1,57.5z"/>
<path class="st1" d="M130.9,37h-6.6c-2,0-3.7-1.7-3.7-3.7v-0.5c0-2,1.7-3.7,3.7-3.7h6.6c2,0,3.7,1.7,3.7,3.7v0.5
	C134.6,35.3,133,37,130.9,37z"/>
<path class="st0" d="M140.5,29.1h12.8c2,0,3.7,1.7,3.7,3.7v0.5c0,2-1.7,3.7-3.7,3.7h-12.8c-2,0-3.7-1.7-3.7-3.7v-0.5
	C136.8,30.7,138.4,29.1,140.5,29.1z"/>
<path class="st3" d="M170.3,35.7l-43.1,43.1c-1.4,1.4-3.8,1.4-5.3,0l-0.4-0.4c-1.4-1.4-1.4-3.8,0-5.3l43.1-43.1
	c1.4-1.4,3.8-1.4,5.3,0l0.4,0.4C171.7,31.9,171.7,34.3,170.3,35.7z"/>
<g>
	<text transform="matrix(1 0 0 1 54.6675 136.625)" class="st3 st4 st5">CodeBreak</text>
</g>
</svg>
