<svg xmlns="http://www.w3.org/2000/svg" viewBox="0 0 163.04 62.23"><defs><style>.cls-1,.cls-3{font-size:28px;}.cls-1,.cls-3,.cls-7{fill:#fff;}.cls-1{font-family:IBMPlexSans-Medium, IBM Plex Sans;letter-spacing:0.04em;}.cls-2{letter-spacing:0.05em;}.cls-3{font-family:IBMPlexSans-Bold, IBM Plex Sans;font-weight:700;}.cls-4{fill:#6cf4da;}.cls-5{fill:#eb3d7a;}.cls-6{fill:#838ad3;}</style></defs><title>full-logo</title><g id="Layer_2" data-name="Layer 2"><g id="Layer_1-2" data-name="Layer 1"><text class="cls-1" transform="translate(69.83 23.77)">C<tspan class="cls-2" x="18.79" y="0">ODE/</tspan></text><text class="cls-3" transform="translate(69.83 54.53)">BREAK</text><path class="cls-4" d="M29.75,36H48.13a3.79,3.79,0,0,1,3.77,3.77v.5A3.79,3.79,0,0,1,48.13,44H29.75A3.79,3.79,0,0,1,26,40.27v-.5A3.7,3.7,0,0,1,29.75,36Z"/><path class="cls-5" d="M39.16,25.58h8.9a3.78,3.78,0,0,1,3.76,3.77v.5a3.78,3.78,0,0,1-3.76,3.77h-8.9a3.79,3.79,0,0,1-3.77-3.77v-.5A3.79,3.79,0,0,1,39.16,25.58Z"/><path class="cls-6" d="M41.33,46.5h6.8a3.79,3.79,0,0,1,3.77,3.76v.51a3.78,3.78,0,0,1-3.77,3.76h-6.8a3.77,3.77,0,0,1-3.76-3.76v-.51A3.68,3.68,0,0,1,41.33,46.5Z"/><path class="cls-5" d="M31.56,54.61H18.46a3.79,3.79,0,0,1-3.77-3.77v-.5a3.79,3.79,0,0,1,3.77-3.77h13.1a3.78,3.78,0,0,1,3.76,3.77v.5A3.74,3.74,0,0,1,31.56,54.61Z"/><path class="cls-6" d="M22.22,21.46H3.84A3.79,3.79,0,0,1,.07,17.69v-.5a3.79,3.79,0,0,1,3.77-3.77H22.22A3.78,3.78,0,0,1,26,17.19v.5A3.78,3.78,0,0,1,22.22,21.46Z"/><path class="cls-4" d="M12.81,31.81h-9A3.79,3.79,0,0,1,.07,28v-.5a3.79,3.79,0,0,1,3.77-3.77h8.9a3.78,3.78,0,0,1,3.76,3.77V28A3.67,3.67,0,0,1,12.81,31.81Z"/><path class="cls-5" d="M10.64,11H3.84A3.79,3.79,0,0,1,.07,7.2V6.62A3.79,3.79,0,0,1,3.84,2.85h6.8A3.74,3.74,0,0,1,14.4,6.62v.5A3.8,3.8,0,0,1,10.64,11Z"/><path class="cls-4" d="M20.34,2.85h13.1A3.78,3.78,0,0,1,37.2,6.62v.5a3.78,3.78,0,0,1-3.76,3.77H20.34a3.78,3.78,0,0,1-3.76-3.77v-.5A3.78,3.78,0,0,1,20.34,2.85Z"/><path class="cls-7" d="M50.81,9.59l-44,44a3.83,3.83,0,0,1-5.35,0l-.36-.36a3.85,3.85,0,0,1,0-5.36L45,3.87a3.85,3.85,0,0,1,5.36,0l.36.36A3.78,3.78,0,0,1,50.81,9.59Z"/></g></g></svg>