<?xml version="1.0" encoding="utf-8"?>
<!-- Generator: Adobe Illustrator 23.0.1, SVG Export Plug-In . SVG Version: 6.00 Build 0)  -->
<svg version="1.1" id="Layer_1" xmlns="http://www.w3.org/2000/svg" xmlns:xlink="http://www.w3.org/1999/xlink" x="0px" y="0px"
	 viewBox="0 0 795 920" style="enable-background:new 0 0 795 920;" xml:space="preserve">
<style type="text/css">
	.st0{fill:url(#SVGID_1_);}
	.st1{opacity:0.15;fill:#40A9ED;}
	.st2{fill:url(#SVGID_2_);}
	.st3{opacity:0.4;}
	.st4{clip-path:url(#SVGID_4_);}
	.st5{fill:#72D5E2;}
	.st6{fill:url(#SVGID_5_);}
	.st7{clip-path:url(#SVGID_7_);}
	.st8{opacity:0.1;fill:#808A94;enable-background:new    ;}
	.st9{fill:#E3E3E3;}
	.st10{fill:#FFFFFF;}
	.st11{fill:#CFE1E6;}
	.st12{fill:#8EA8AD;}
	.st13{fill:#8DB9BF;}
	.st14{fill:#D1E6E8;}
	.st15{fill:#C4C4C4;}
	.st16{fill:#D6D6D6;}
	.st17{fill:#F0F0F0;}
	.st18{fill:#94A3A6;}
	.st19{fill:#A86AE9;}
	.st20{fill:#D7EEF2;}
	.st21{fill:#FFF2E7;}
	.st22{fill:#E4EDED;}
	.st23{fill:#EF3B79;}
	.st24{fill:#4E24A0;}
	.st25{fill:#6825BF;}
	.st26{fill:#763ECE;}
	.st27{fill:#CACACA;}
	.st28{fill:#FFC7C8;}
	.st29{fill:#1C1E38;}
	.st30{fill:#E2C342;}
	.st31{fill:#F3E07C;}
	.st32{fill:#C0CCCC;}
	.st33{fill:#808A94;}
	.st34{fill:#97BABF;}
	.st35{fill:#F8FCFF;}
	.st36{fill:#D6EBED;}
	.st37{opacity:0.2;fill:url(#SVGID_8_);enable-background:new    ;}
	.st38{clip-path:url(#SVGID_10_);}
	.st39{opacity:0.4;fill:#317DBA;enable-background:new    ;}
	.st40{fill:url(#SVGID_11_);}
	.st41{clip-path:url(#SVGID_13_);}
	.st42{fill:url(#SVGID_14_);}
	.st43{fill:url(#SVGID_15_);}
	.st44{fill:url(#SVGID_16_);}
	.st45{fill:url(#SVGID_17_);}
	.st46{fill:url(#SVGID_18_);}
	.st47{fill:url(#SVGID_19_);}
	.st48{opacity:0.44;fill:#72D5E2;}
</style>
<linearGradient id="SVGID_1_" gradientUnits="userSpaceOnUse" x1="255.2224" y1="975.7566" x2="787.645" y2="457.9642" gradientTransform="matrix(1 0 0 -1 0 1082)">
	<stop  offset="0" style="stop-color:#201F3F"/>
	<stop  offset="0.5184" style="stop-color:#162849"/>
	<stop  offset="1" style="stop-color:#083457"/>
</linearGradient>
<path class="st0" d="M556.18-0.6c0,0-374.36,77.14-469.22,358.15s165.2,348.96,326.93,332.51s173.99,105.68,381.41,2.3V-0.6
	L556.18-0.6L556.18-0.6z"/>
<g>
	<path class="st1" d="M379.12,197.76h-90.87c-10.37,0-18.77-8.4-18.77-18.77v-2.47c0-10.37,8.4-18.77,18.77-18.77h90.87
		c10.37,0,18.77,8.4,18.77,18.77v2.47C397.88,189.36,389.49,197.76,379.12,197.76z"/>
	<path class="st1" d="M332.69,248.62h-44.45c-10.37,0-18.77-8.4-18.27-18.77v-2.47c0-10.37,8.4-18.77,18.77-18.77h43.95
		c10.37,0,18.77,8.4,18.77,18.77v2.47c0.49,9.88-7.41,18.27-17.28,18.77C333.19,248.62,333.19,248.62,332.69,248.62z"/>
	<path class="st1" d="M321.83,145.9h-33.58c-10.37,0-18.77-8.4-18.77-18.77v-2.96c0-10.37,8.4-18.77,18.77-18.77h33.58
		c10.37,0,18.27,8.4,18.77,18.27c0,0,0,0,0,0.49v2.47C340.6,137.01,332.69,145.9,321.83,145.9
		C322.32,145.9,321.83,145.9,321.83,145.9z"/>
	<path class="st1" d="M369.73,105.9h64.69c10.37,0,18.77,8.4,18.77,18.77v2.47c0,10.37-8.4,18.77-18.77,18.77h-64.69
		c-10.37,0-18.77-8.4-18.77-18.77v-2.96C351.46,114.3,359.36,105.9,369.73,105.9z"/>
</g>
<g>
	
		<linearGradient id="SVGID_2_" gradientUnits="userSpaceOnUse" x1="234.8577" y1="-183.2357" x2="358.5501" y2="-66.9966" gradientTransform="matrix(0.98 0.22 -0.22 0.98 123.4842 391.1922)">
		<stop  offset="0" style="stop-color:#EF3B79"/>
		<stop  offset="1" style="stop-color:#221781"/>
	</linearGradient>
	<path class="st2" d="M481.58,466.01c-48.16-39.9-66.7-173.15-6.08-150.24c56.1,21.2-21.82,122.34,49.56,147.12L481.58,466.01z"/>
	<g class="st3">
		<g>
			<defs>
				<path id="SVGID_3_" d="M481.58,466.01c-48.16-39.9-66.7-173.15-6.08-150.24c56.1,21.2-21.82,122.34,49.56,147.12L481.58,466.01z
					"/>
			</defs>
			<clipPath id="SVGID_4_">
				<use xlink:href="#SVGID_3_"  style="overflow:visible;"/>
			</clipPath>
			<g class="st4">
				<g>
					<path class="st5" d="M530.36,493.13c-0.47-0.47-54.08-47.53-64.52-103.01c-10.44-55.95,4.99-76.52,46.13-103.95l1.4,2.18
						c-42.08,28.21-55.17,47.69-45.04,101.46c10.29,54.7,63.12,101.14,63.74,101.61L530.36,493.13z"/>
					<path class="st5" d="M463.66,354.89c-24.78-11.22-28.05-26.65-28.21-27.27l2.49-0.47c0,0.16,3.27,14.81,26.65,25.56
						L463.66,354.89z"/>
					<path class="st5" d="M467.87,393.7l-0.31-2.49c15.58-2.03,30.23-18.23,30.39-18.39l1.87,1.71
						C499.19,375.15,484.39,391.52,467.87,393.7z"/>
					<path class="st5" d="M476.44,420.82c-45.2-9.97-47.69-32.88-47.85-33.97l2.49-0.31c0,0.16,2.65,22.13,45.82,31.64
						L476.44,420.82z"/>
				</g>
			</g>
		</g>
	</g>
	
		<linearGradient id="SVGID_5_" gradientUnits="userSpaceOnUse" x1="387.2203" y1="-18.2189" x2="531.8597" y2="294.2265" gradientTransform="matrix(0.9674 0.2533 -0.2533 0.9674 146.7289 222.7217)">
		<stop  offset="0" style="stop-color:#EF3B79"/>
		<stop  offset="1" style="stop-color:#221781"/>
	</linearGradient>
	<path class="st6" d="M505.89,533.65c-57.04-92.57-13.25-322.45,73.87-251.07c80.73,66.23-104.11,189.35-0.31,270.24L505.89,533.65z
		"/>
	<g class="st3">
		<g>
			<defs>
				<path id="SVGID_6_" d="M505.89,533.65c-57.04-92.57-13.25-322.45,73.87-251.07c80.73,66.23-104.11,189.35-0.31,270.24
					L505.89,533.65z"/>
			</defs>
			<clipPath id="SVGID_7_">
				<use xlink:href="#SVGID_6_"  style="overflow:visible;"/>
			</clipPath>
			<g class="st7">
				<g>
					<path class="st5" d="M571.19,605.65c-0.62-1.09-62.65-108.31-48.78-205.72c13.87-98.03,50.81-123.12,134.03-145.56l1.25,4.36
						c-84.94,22.91-117.35,47.85-130.76,141.98c-13.56,95.85,47.69,201.82,48.16,202.91L571.19,605.65z"/>
					<path class="st5" d="M538.31,340.56c-34.6-32.26-31.33-59.53-31.17-60.62l4.36,0.62c0,0.31-2.96,26.34,29.77,56.88
						L538.31,340.56z"/>
					<path class="st5" d="M523.66,406.95l0.94-4.36c26.81,5.3,60-13.09,60.31-13.25l2.18,3.9
						C585.53,394.01,552.02,412.56,523.66,406.95z"/>
					<path class="st5" d="M522.72,456.51c-68.88-41.61-60.31-80.88-59.85-82.6l4.36,0.94c-0.16,0.31-7.95,38.03,57.82,77.61
						L522.72,456.51z"/>
				</g>
			</g>
		</g>
	</g>
	<path class="st8" d="M220.85,700.56c0,0.78,0.16,1.56,0.31,2.49c0.47,1.87,1.71,3.58,3.27,4.68c0.16,0.16,0.47,0.31,0.62,0.47
		l155.85,89.92c2.65,1.56,6.08,1.56,8.73,0L660.8,641.5c2.03-1.09,3.43-2.96,4.05-5.14c1.09-3.9-0.62-7.95-4.05-9.97l-155.69-89.92
		c-2.65-1.56-6.08-1.56-8.73,0L225.21,693.08c-1.4,0.78-2.65,2.03-3.27,3.58C221.32,697.91,220.85,699.16,220.85,700.56z"/>
	<path class="st9" d="M221.94,560.92h2.65v1.71c0.16-0.16,0.47-0.31,0.62-0.47l271.33-156.63c2.65-1.56,6.08-1.56,8.73,0
		l155.69,89.92c0.94,0.62,1.87,1.25,2.49,2.18h1.87v0.47v9.35v0.16c0,3.12-1.71,5.92-4.36,7.48L389.79,671.73
		c-2.65,1.56-6.08,1.56-8.73,0l-155.85-89.92c-1.09-0.62-1.87-1.4-2.65-2.34c-1.09-1.56-1.71-3.27-1.71-5.3v-9.35
		C220.85,563.42,221.32,562.01,221.94,560.92z"/>
	<path class="st10" d="M220.85,564.82c0,0.78,0.16,1.71,0.31,2.49c0.47,1.87,1.71,3.58,3.27,4.68c0.16,0.16,0.47,0.31,0.62,0.47
		l155.85,89.92c2.65,1.56,6.08,1.56,8.73,0L660.8,505.75c2.03-1.09,3.43-2.96,4.05-5.14c1.09-3.9-0.62-7.95-4.05-9.97l-155.69-89.92
		c-2.65-1.56-6.08-1.56-8.73,0L225.21,557.34c-1.4,0.78-2.65,2.03-3.27,3.58C221.32,562.01,220.85,563.42,220.85,564.82z"/>
	<path class="st11" d="M431.09,557.96l46.13,26.65c0.94,0.62,1.25,1.87,0.62,2.81c-0.16,0.31-0.31,0.47-0.62,0.62l-44.1,25.4
		c-3.12,1.87-7.01,1.87-10.13,0l-44.1-25.4c-0.94-0.62-1.25-1.87-0.62-2.81c0.16-0.31,0.31-0.47,0.62-0.62l46.13-26.65
		C426.88,556.87,429.06,556.87,431.09,557.96z"/>
	<path class="st12" d="M404.9,581.96c-1.25,6.23,6.08,12.78,16.36,14.65c10.29,1.87,19.48-1.71,20.73-8.1
		c1.25-6.23-6.08-12.78-16.36-14.65C415.35,571.99,405.99,575.73,404.9,581.96z"/>
	<path class="st13" d="M406.77,579c-1.25,6.23,5.61,12.78,15.27,14.49c9.66,1.71,18.55-2.03,19.95-8.26
		c1.25-6.23-5.61-12.78-15.43-14.49C416.9,569.03,408.02,572.77,406.77,579z"/>
	<ellipse class="st8" cx="500.91" cy="432.51" rx="12.94" ry="7.64"/>
	<path class="st10" d="M487.81,423.78c0,7.17,5.77,12.94,13.09,12.94c5.61,0,10.6-3.58,12.31-9.04c0.47-1.25,0.62-2.65,0.62-4.05
		c0-7.17-5.77-12.94-12.94-13.09c-0.78,0-1.56,0-2.34,0.16c-5.3,0.94-9.51,5.14-10.44,10.44C487.97,422.38,487.81,423,487.81,423.78
		z"/>
	<path class="st14" d="M500.91,437.49c-7.64,0-13.71-6.08-13.71-13.71c0-0.78,0-1.56,0.16-2.49c1.09-5.61,5.45-10.13,11.07-11.07
		c0.78-0.16,1.56-0.16,2.34-0.16c7.64,0,13.71,6.08,13.71,13.71c0,1.4-0.16,2.81-0.62,4.21c-1.4,4.21-4.68,7.48-8.88,8.88
		C503.71,437.34,502.31,437.49,500.91,437.49z M500.91,411.47c-0.78,0-1.4,0-2.18,0.16c-5.14,0.94-9.04,4.83-9.97,9.97
		c-0.16,0.78-0.16,1.4-0.16,2.18c0,6.86,5.45,12.31,12.31,12.31c6.86,0,12.31-5.45,12.31-12.31S507.61,411.47,500.91,411.47
		L500.91,411.47z"/>
	<path class="st14" d="M500.44,437.49c-0.31,0-0.47-0.16-0.62-0.31c-0.16-0.31-0.16-0.78,0.16-0.94l0,0
		c2.65-1.4,4.52-4.05,4.83-7.01c0.16-2.34-0.62-4.68-2.49-6.23c-2.03-2.03-4.99-3.12-7.95-2.65c-2.65,0.47-4.83,2.18-6.08,4.68
		c-0.16,0.31-0.62,0.47-0.94,0.31c-0.31-0.16-0.47-0.62-0.31-0.94c1.4-2.81,3.9-4.83,7.01-5.45c3.43-0.47,6.7,0.62,9.19,2.96
		c2.03,1.87,3.12,4.68,2.96,7.48c-0.31,3.12-2.34,5.92-5.45,7.95C500.75,437.49,500.59,437.49,500.44,437.49z"/>
	<path class="st14" d="M513.22,424.25c-2.03,0-4.68-1.87-6.86-4.05c-2.65-2.65-3.12-4.83-2.96-6.39c0-1.09,0.47-2.18,1.25-2.96
		c0.31-0.16,0.78-0.16,0.94,0.16c0.16,0.31,0.16,0.62-0.16,0.94c-0.47,0.62-0.78,1.25-0.78,2.03c0,1.25,0.31,3.12,2.65,5.3
		c2.34,2.34,5.14,4.05,6.23,3.43c0.31-0.16,0.78,0,0.94,0.31c0.16,0.31,0,0.78-0.31,0.94l0,0
		C513.84,424.25,513.53,424.25,513.22,424.25z"/>
	<polygon class="st15" points="504.33,514.01 575.24,554.85 528.02,582.12 457.27,541.13 	"/>
	<polygon class="st16" points="504.33,512.92 575.24,553.91 528.02,581.03 457.27,540.2 	"/>
	<polygon class="st17" points="504.33,511.99 575.24,552.82 528.02,580.09 457.27,539.26 	"/>
	<path class="st18" d="M526.78,580.56c0.31,0,0.78-0.16,0.94-0.47c0.31-0.31,0.47-0.62,0.47-0.94c0-0.16,0-0.47-0.16-0.62
		c0-0.16-0.16-0.31-0.31-0.47c-0.62-0.62-1.56-0.62-2.03,0c-0.16,0.16-0.31,0.31-0.31,0.47c0,0.16-0.16,0.31-0.16,0.62
		C525.22,579.94,525.84,580.72,526.78,580.56L526.78,580.56L526.78,580.56z M526.78,578.69c0.16,0,0.31,0,0.31,0.16
		c0,0,0,0.16,0.16,0.16v0.16c0,0.16,0,0.31-0.16,0.31c-0.16,0.16-0.47,0.16-0.62,0c-0.16-0.16-0.16-0.16-0.16-0.31
		c0-0.16,0-0.31,0.16-0.31C526.46,578.69,526.62,578.69,526.78,578.69L526.78,578.69z"/>
	<path class="st18" d="M518.98,576.2c0.78,0,1.4-0.62,1.4-1.4s-0.62-1.4-1.4-1.4s-1.4,0.62-1.4,1.4c0,0.16,0,0.31,0,0.31
		c0.16,0.31,0.31,0.62,0.62,0.94C518.52,576.04,518.83,576.2,518.98,576.2z M518.98,574.17c0.16,0,0.16,0,0.16,0
		c0.16,0.16,0.31,0.47,0.16,0.62l0,0c-0.16,0.16-0.47,0.31-0.62,0.16c-0.16,0-0.16-0.16-0.16-0.31c0-0.16,0-0.31,0-0.31
		C518.67,574.33,518.83,574.17,518.98,574.17z M511.35,571.68c0.47,0,0.94-0.31,1.25-0.78c0.16-0.31,0.31-0.78,0.16-1.09
		c-0.16-0.31-0.31-0.62-0.62-0.94c-0.62-0.47-1.56-0.16-2.03,0.47c-0.16,0.31-0.31,0.78-0.16,1.09
		C510.1,571.21,510.72,571.68,511.35,571.68z M511.35,569.81c0.16,0,0.16,0,0.31,0s0.16,0.16,0.16,0.31c0,0.16,0,0.31,0,0.31l0,0
		c-0.16,0.16-0.47,0.31-0.62,0.16l0,0c-0.16-0.16-0.31-0.47-0.16-0.62C511.04,569.81,511.19,569.81,511.35,569.81L511.35,569.81z
		 M503.71,567.31c0.47,0,0.94-0.31,1.25-0.78l0,0c0.16-0.31,0.31-0.78,0.16-1.09c-0.16-0.78-1.09-1.25-1.71-0.94
		c-0.31,0.16-0.62,0.31-0.94,0.62c-0.47,0.62-0.16,1.56,0.47,2.03C503.24,567.31,503.4,567.31,503.71,567.31L503.71,567.31z
		 M504.18,566.07c-0.16,0.16-0.47,0.31-0.62,0.16c-0.16,0-0.16-0.16-0.16-0.31c0-0.16,0-0.31,0-0.31c0-0.16,0.16-0.16,0.31-0.16
		s0.31,0,0.31,0c0.16,0,0.16,0.16,0.16,0.31C504.18,565.75,504.18,565.91,504.18,566.07L504.18,566.07z M496.07,562.79
		c0.78,0,1.4-0.62,1.4-1.4c0-0.47-0.31-0.94-0.78-1.25c-0.78-0.31-1.56,0-2.03,0.62c-0.31,0.62-0.16,1.4,0.47,1.87
		C495.45,562.79,495.76,562.79,496.07,562.79L496.07,562.79z M496.07,560.92c0.16,0,0.16,0,0.31,0s0.16,0.16,0.16,0.31
		c0,0.16,0,0.31,0,0.31l0,0c-0.16,0.16-0.47,0.31-0.62,0.16c-0.16-0.16-0.31-0.47-0.16-0.62
		C495.61,561.08,495.76,560.92,496.07,560.92L496.07,560.92z M488.28,558.43c0.78,0,1.4-0.62,1.4-1.4s-0.62-1.4-1.4-1.4
		s-1.4,0.62-1.4,1.4c0,0.47,0.31,0.94,0.78,1.25C487.81,558.27,488.13,558.43,488.28,558.43L488.28,558.43z M488.28,556.4
		c0.16,0,0.16,0,0.31,0c0.16,0.16,0.31,0.47,0.16,0.62l0,0l0,0c-0.16,0.16-0.47,0.31-0.62,0.16c-0.16-0.16-0.31-0.47-0.16-0.62
		C487.97,556.56,488.13,556.4,488.28,556.4L488.28,556.4z M480.65,553.91c0.47,0,0.94-0.31,1.25-0.78l0,0
		c0.47-0.62,0.16-1.56-0.47-2.03c-0.31-0.16-0.78-0.31-1.09-0.16c-0.31,0.16-0.62,0.31-0.94,0.62c-0.16,0.31-0.31,0.78-0.16,1.09
		c0.16,0.31,0.31,0.62,0.62,0.94C480.18,553.91,480.33,553.91,480.65,553.91z M481.11,552.66c-0.16,0.16-0.47,0.31-0.62,0.16l0,0
		c-0.16,0-0.16-0.16-0.16-0.31c0-0.16,0-0.31,0-0.31c0-0.16,0.16-0.16,0.31-0.16s0.31,0,0.31,0
		C481.11,552.2,481.27,552.51,481.11,552.66L481.11,552.66L481.11,552.66z M473.01,549.55c0.47,0,0.94-0.31,1.25-0.78
		c0.47-0.62,0.16-1.56-0.47-2.03c-0.62-0.47-1.56-0.16-2.03,0.47c-0.16,0.31-0.31,0.78-0.16,1.09c0.16,0.31,0.31,0.62,0.62,0.94
		C472.39,549.39,472.7,549.55,473.01,549.55L473.01,549.55z M473.01,547.52c0.16,0,0.16,0,0.31,0c0.16,0.16,0.31,0.47,0.16,0.62l0,0
		l0,0c-0.16,0.16-0.47,0.31-0.62,0.16c-0.16,0-0.16-0.16-0.16-0.31s0-0.31,0-0.31C472.54,547.68,472.7,547.52,473.01,547.52
		L473.01,547.52z M465.22,545.03c0.47,0,0.94-0.31,1.25-0.78l0,0c0.47-0.78,0.16-1.56-0.62-2.03c-0.31-0.16-0.78-0.16-1.09-0.16
		c-0.31,0.16-0.62,0.31-0.94,0.62c-0.31,0.62-0.16,1.56,0.47,2.03C464.75,545.03,465.06,545.03,465.22,545.03L465.22,545.03z
		 M465.68,543.78c-0.16,0.16-0.47,0.31-0.62,0.16c-0.16-0.16-0.31-0.47-0.16-0.62c0-0.16,0.16-0.16,0.31-0.16s0.31,0,0.31,0
		C465.68,543.31,465.84,543.62,465.68,543.78L465.68,543.78z"/>
	<path class="st18" d="M457.58,540.66c0.16,0,0.31,0,0.62-0.16c0.16-0.16,0.31-0.16,0.47-0.31c0.16-0.16,0.31-0.31,0.31-0.47
		c0-0.16,0.16-0.31,0.16-0.62c0-0.16,0-0.31-0.16-0.62c0-0.16-0.16-0.31-0.31-0.47c-0.47-0.47-1.09-0.62-1.56-0.31
		c-0.16,0-0.31,0.16-0.47,0.31c-0.31,0.31-0.47,0.62-0.47,1.09c0,0.16,0,0.31,0.16,0.62c0,0.16,0.16,0.31,0.31,0.47
		c0.16,0.16,0.31,0.31,0.47,0.31C457.27,540.66,457.42,540.66,457.58,540.66z M457.58,538.79h0.16c0,0,0.16,0,0.16,0.16
		c0,0,0,0.16,0.16,0.16c0,0.16,0,0.47-0.16,0.47c0,0-0.16,0-0.16,0.16c-0.16,0-0.31,0-0.31,0s-0.16,0-0.16-0.16
		c0,0,0-0.16-0.16-0.16v-0.16v-0.16c0,0,0-0.16,0.16-0.16c0,0,0.16,0,0.16-0.16L457.58,538.79L457.58,538.79z"/>
	<polygon class="st19" points="364.23,576.35 307.5,608.46 256.38,542.07 308.75,519.16 	"/>
	<polygon class="st20" points="357.68,576.2 299.71,606.59 250.93,539.26 304.07,517.91 	"/>
	<polygon class="st21" points="347.55,586.48 284.43,608.77 249.21,537.86 302.36,521.81 	"/>
	<path class="st8" d="M492.02,761.03c0,0.94,0.31,1.71,0.78,2.49c0.31,0.47,0.78,0.94,1.4,1.25l13.09,7.48l84.47,48.78
		c6.86,4.05,15.43,4.05,22.29,0l86.03-49.72l11.38-6.55c0.62-0.31,1.09-0.78,1.4-1.25c1.4-2.03,0.78-4.68-1.25-5.92
		c-0.16,0-0.16-0.16-0.31-0.16l-11.38-6.55l-90.39-52.21c-4.21-2.49-9.35-2.49-13.56,0l-88.68,51.27l-13.09,7.48
		C492.8,758.07,492.02,759.63,492.02,761.03z"/>
	<path class="st22" d="M686.67,764.62c2.65,0,4.68-2.18,4.68-4.68c0-1.71-0.94-3.27-2.34-4.05l-75.12-43.33
		c-4.05-2.34-6.55-6.7-6.55-11.22v-53.46c0-7.17,5.77-13.09,13.09-13.09c2.34,0,4.52,0.62,6.55,1.71l30.7,17.77
		c10.75,6.23,24.47,2.49,30.7-8.26c2.03-3.43,2.96-7.32,2.96-11.22v-50.03c0-2.65-2.18-4.68-4.68-4.68c-2.65,0-4.68,2.18-4.68,4.68
		v50.03c0,7.17-5.77,13.09-12.94,13.09c-2.34,0-4.52-0.62-6.55-1.71l-30.86-17.92c-10.75-6.23-24.47-2.49-30.7,8.26
		c-2.03,3.43-2.96,7.32-2.96,11.22v53.46c0,7.95,4.21,15.43,11.22,19.48l75.12,43.48C685.12,764.46,685.9,764.62,686.67,764.62z"/>
	<path class="st23" d="M573.53,707.58c-0.62,9.82,1.4,9.19,0,14.49c-1.25,4.21-8.26,8.42-20.57,4.36
		c-12.31-4.05-23.84-11.84-28.21-19.79c-4.36-7.95,11.22-11.38,24.31-5.92C558.57,704.61,573.53,707.73,573.53,707.58"/>
	<path class="st24" d="M561.22,623.26c2.65,17.61,16.21,82.29,12.47,91.48s-15.9,8.88-24.47-4.21
		c-8.57-13.09-24.31-85.87-24.47-99.12C524.59,599.73,557.79,600.04,561.22,623.26z"/>
	<path class="st25" d="M579.3,650.69c-16.99-10.29-46.75-26.03-52.68-37.25c-5.77-11.22,2.18-26.49,18.7-26.18
		c16.52,0.31,51.43,27.74,63.9,29.46C621.84,618.43,601.43,664.25,579.3,650.69z"/>
	<path class="st23" d="M539.87,721.13c1.25,9.82,2.18,13.25,2.18,16.21c0,2.96-6.08,7.79-19.01,6.08
		c-12.94-1.71-31.33-8.42-37.09-15.27c-5.77-7.01,16.36-14.18,28.68-10.91C524.44,720.04,539.87,721.13,539.87,721.13"/>
	<path class="st26" d="M527.4,635.89c2.65,17.61,16.21,82.29,12.47,91.48c-3.74,9.2-15.9,8.88-24.47-4.21
		c-8.57-13.09-24.31-85.87-24.47-99.12C490.62,612.35,523.81,612.82,527.4,635.89z"/>
	<path class="st27" d="M523.5,660.35l9.51-5.45v3.58l64.68-37.4c3.12-1.71,6.86-1.71,9.97,0l65.92,38.18v-3.58l8.26,4.83
		c0.94,0.47,1.56,1.56,1.56,2.65v3.58c0,1.09-0.62,2.18-1.56,2.65l-8.26,4.83l-62.65,36c-4.99,2.96-11.22,2.96-16.21,0l-61.56-35.53
		l-9.51-5.45c-0.94-0.62-1.56-1.56-1.56-2.65V663C521.94,661.91,522.57,660.82,523.5,660.35z"/>
	<path class="st10" d="M521.94,663c0,0.62,0.16,1.25,0.47,1.71c0.31,0.47,0.62,0.78,0.94,0.94l9.51,5.45l61.56,35.53
		c4.99,2.96,11.22,2.96,16.21,0l62.81-36.31l8.26-4.83c0.47-0.31,0.78-0.62,0.94-0.94c0.31-0.47,0.47-1.09,0.47-1.71
		c0-1.09-0.62-2.18-1.56-2.65l-8.26-4.83l-65.92-38.18c-3.12-1.71-6.86-1.71-9.97,0l-64.68,37.4l-9.51,5.61
		C522.57,660.82,521.94,661.91,521.94,663z"/>
	<path class="st28" d="M603.3,531.94c-13.87,5.3-24.62-0.31-28.36-3.27c-3.74-2.96,4.68-8.57,7.17-12.94
		c1.09-1.87,1.09-4.52,0.31-7.64c-0.94-4.21-4.05-17.77-6.55-23.53l28.36-3.43c0,0,2.34,14.34,3.58,19.64
		c0.16,0.78,0.47,1.56,0.94,2.34c1.87,3.12,5.61,3.58,12.16,6.7C628.7,513.39,617.01,526.64,603.3,531.94z"/>
	<path class="st28" d="M623.09,462.9c-2.96,16.99-3.43,22.6-11.84,29.14c-8.42,6.55-26.81,8.26-33.35,7.95
		c-8.1-0.47-10.44-9.82-12-17.14c-1.71-7.64-3.27-26.96,0.47-45.35c2.03-9.35,15.12-20.1,27.9-19.33
		C607.04,418.79,630.41,421.6,623.09,462.9z"/>
	<path class="st29" d="M572.75,456.04c1.25,14.81,5.61,17.3,9.82,26.65c3.9,8.73,14.34,14.96,21.82,12.94
		c13.56-3.9,14.34-8.88,22.29-23.53c5.61-10.13,7.79-21.97,6.23-33.51c-0.94-8.26-13.25-18.55-26.34-19.01
		C593.63,419.41,569.63,419.88,572.75,456.04z"/>
	<path class="st28" d="M567.76,474.58c0.62,5.45,4.68,9.82,9.2,9.51c4.52-0.31,7.79-4.99,7.17-10.6c-0.62-5.61-4.68-9.82-9.19-9.51
		C570.41,464.45,567.14,469.13,567.76,474.58z"/>
	<path class="st29" d="M579.61,445.44c-8.88-4.99-19.79-8.88-14.18-16.36c5.45-7.32,23.07-17.61,46.6-10.44
		C635.56,425.8,579.61,445.44,579.61,445.44z"/>
	<path class="st28" d="M550.78,511.05c-10.44-0.47-11.84-4.21-20.26-5.61s-12-1.4-17.3,2.34c-5.3,3.74-9.04,13.71,5.61,13.56
		c14.65-0.16,16.21,2.65,24.78,3.58C552.49,526.17,550.78,511.05,550.78,511.05z"/>
	<path class="st29" d="M511.04,525.7c-0.47,0-1.09-0.31-1.09-0.94c0-0.31,0.16-0.78,0.47-0.94l21.51-19.64
		c0.47-0.31,1.09-0.31,1.4,0c0.31,0.47,0.31,1.09,0,1.4l0,0l-21.51,19.64C511.66,525.7,511.35,525.7,511.04,525.7z"/>
	<path class="st28" d="M552.65,520.72c-10.29,0.31-12.31-1.25-20.88-1.56c-8.57-0.31-12-0.16-16.83,1.71
		c-4.83,1.71-7.17,6.23,7.17,5.61c14.49-0.62,16.36,0.47,24.94,0.62C556.39,526.95,552.65,520.72,552.65,520.72z"/>
	<path class="st30" d="M617.32,559.68c-19.95-1.25-69.35-27.27-77.92-32.73c-1.09-0.78-1.87-1.87-1.87-3.27
		c-0.47-8.57,4.05-15.43,6.39-15.9c2.49-0.47,62.49,31.01,90.08,24"/>
	<path class="st26" d="M638.83,628.72c3.12,14.49,5.14,27.58-1.4,34.75c-6.55,7.17-26.18,19.33-54.7,14.81
		c-28.52-4.52-48.47-13.09-44.42-21.04c4.05-7.95,0.94-28.52,31.79-25.71S638.83,628.72,638.83,628.72z"/>
	<path class="st25" d="M545.32,667.52c-16.99-10.29-46.75-26.03-52.68-37.25c-5.92-11.22,2.18-26.49,18.7-26.18
		c16.52,0.31,51.43,27.74,63.9,29.3C587.87,635.11,567.61,680.93,545.32,667.52z"/>
	<path class="st31" d="M559.04,632.46c-0.16,7.79,1.56,19.33,17.3,22.91c17.61,4.05,35.84,1.56,48.78-5.45
		c15.9-8.57,15.12-12.78,11.84-28.36c-1.87-8.88-2.81-27.12-2.81-27.12c0-16.68,2.49-25.56,4.21-36.47
		c2.49-15.9,6.23-35.84-10.13-48.94c-4.36-3.58-13.25-5.92-17.3-5.3c-18.86,3.12-43.17,14.81-50.81,39.12
		c-0.78,2.65-1.4,5.45-1.87,8.26c-0.47,3.43-0.62,6.86-0.47,10.29c0.62,18.08,0.94,31.33,1.09,41.46c0,0.31,0,0.62,0,0.94
		C559.5,620.3,559.19,627.63,559.04,632.46z"/>
	<path class="st30" d="M558.1,561.39c0.62,18.08,0.94,31.33,1.09,41.46c7.79-10.44,14.81-21.35,21.04-32.73
		c11.38-21.51,10.13-36.31-6.55-34.6c-5.3,0.47-10.13,3.12-13.4,7.17c-0.78,2.65-1.4,5.45-1.87,8.26
		C558.1,554.53,557.95,557.96,558.1,561.39z"/>
	<path class="st10" d="M601.43,635.26v19.79c0,2.96,2.49,5.45,5.45,5.45l0,0l0,0c0.94,0,1.87-0.31,2.65-0.78l73.09-42.23
		c1.71-0.94,2.65-2.81,2.65-4.68v-19.79c0-1.56-0.62-2.96-1.71-4.05c-1.71-1.71-4.36-1.87-6.39-0.78l-73.09,42.23
		C602.52,631.37,601.43,633.24,601.43,635.26z"/>
	<path class="st27" d="M605.17,636.67v19.79c0,1.56,0.62,2.96,1.71,4.05l0,0c0.94,0,1.87-0.31,2.65-0.78l73.09-42.23
		c1.71-0.94,2.65-2.81,2.65-4.68v-19.79c0-1.56-0.62-2.96-1.71-4.05c-0.94,0-1.87,0.31-2.65,0.78l-73.09,42.23
		C606.26,632.92,605.17,634.64,605.17,636.67z"/>
	<path class="st22" d="M602.83,813.08c2.65,0,4.68-2.03,4.68-4.68c0-1.71-0.94-3.27-2.34-4.05l-75.12-43.33
		c-4.05-2.34-6.55-6.7-6.55-11.22v-55.95c0-7.17,5.77-13.09,13.09-13.09c2.34,0,4.52,0.62,6.55,1.71l30.7,17.77
		c10.75,6.23,24.47,2.49,30.7-8.26c2.03-3.43,2.96-7.32,2.96-11.22v-50.03c0.16-2.65-1.87-4.83-4.52-4.99
		c-2.65-0.16-4.83,1.87-4.99,4.52c0,0.16,0,0.31,0,0.47v50.03c0,7.17-5.77,13.09-13.09,13.09c-2.34,0-4.52-0.62-6.55-1.71
		l-30.7-17.77c-10.75-6.23-24.47-2.49-30.7,8.26c-2.03,3.43-2.96,7.32-2.96,11.22v55.95c0,7.95,4.21,15.43,11.22,19.48l75.12,43.48
		C601.11,812.93,601.89,813.08,602.83,813.08z"/>
	<path class="st28" d="M452.9,574.95c-9.82-1.56-10.91-5.3-18.7-7.64c-7.79-2.34-11.22-2.65-16.68,0.16
		c-5.45,2.96-12.94,13.25,0.94,14.81s17.92,3.12,25.87,4.99C452.9,589.44,452.9,574.95,452.9,574.95z"/>
	<path class="st31" d="M593.32,545.81c-16.05,17.92-52.68,45.82-71.38,50.18c-19.32,4.52-74.34-5.61-84.16-8.26
		c-1.25-0.31-2.34-1.25-2.81-2.49c-2.96-8.1-0.62-15.9,1.56-17.14c2.34-1.25,68.88,11.22,93.2-3.43
		c16.99-10.29,17.92-10.91,30.86-26.81c10.44-12.78,18.86-27.43,35.84-24.94C613.43,515.42,608.44,528.82,593.32,545.81z"/>
	<path class="st32" d="M347.86,512.92h0.94v0.62l0.31-0.16l102.7-59.22c1.09-0.62,2.34-0.62,3.27,0L514,488.14
		c0.31,0.16,0.62,0.47,0.94,0.78h0.62v2.03l0,0c0,1.09-0.62,2.18-1.71,2.81l-102.7,59.38c-1.09,0.62-2.34,0.62-3.27,0l-58.91-33.97
		c-0.31-0.16-0.78-0.47-0.94-0.94c-0.47-0.62-0.62-1.25-0.62-2.03v-1.87C347.4,513.86,347.55,513.39,347.86,512.92z"/>
	<path class="st22" d="M347.4,514.33c0,1.09,0.47,2.03,1.4,2.65l0.31,0.16l58.91,33.97c1.09,0.62,2.34,0.62,3.27,0L514,491.88
		c0.78-0.47,1.25-1.09,1.56-2.03c0.47-1.4-0.16-2.96-1.56-3.74l-58.91-33.97c-1.09-0.62-2.34-0.62-3.27,0l-102.7,59.22
		C348.02,512.14,347.4,513.23,347.4,514.33z"/>
	<path class="st32" d="M437.16,513.23l12.16,7.01c0.47,0.31,1.25,0.31,1.71,0l17.14-9.97c0.78-0.47,1.09-1.56,0.62-2.34
		c-0.16-0.31-0.31-0.47-0.62-0.62l-12.16-7.01c-0.47-0.31-1.25-0.31-1.71,0l-17.14,9.97c-0.78,0.47-1.09,1.56-0.62,2.34
		C436.7,512.92,436.85,513.08,437.16,513.23z"/>
	<path class="st33" d="M478.77,475.52l-24.47-14.03c-0.62-0.31-1.4-0.31-2.03,0l-88.68,51.12c-0.94,0.62-1.4,1.87-0.78,2.81
		c0.16,0.31,0.47,0.62,0.78,0.78l24.47,14.03c0.62,0.31,1.4,0.31,2.03,0l88.68-51.12c0.94-0.62,1.4-1.87,0.78-2.81
		C479.4,475.99,479.09,475.68,478.77,475.52z"/>
	<path class="st34" d="M453.37,381.39v68.11c0,1.25-0.62,2.34-1.56,2.96l-102.7,59.22c-1.56,0.94-3.58,0.47-4.52-1.09
		c-0.31-0.47-0.47-1.09-0.47-1.71v-68.26c0-1.25,0.62-2.34,1.71-2.81l102.7-59.22c1.56-0.94,3.58-0.47,4.52,1.09
		C453.22,380.14,453.37,380.76,453.37,381.39z"/>
	<path class="st35" d="M447.92,445.29v-57.82c0-0.78-0.62-1.4-1.4-1.4c-0.31,0-0.47,0-0.78,0.16l-93.66,54.08
		c-1.56,0.94-2.49,2.49-2.49,4.21v57.66c0,0.78,0.62,1.4,1.4,1.4c0.31,0,0.47,0,0.62-0.16l93.66-54.08
		C446.98,448.56,447.92,447,447.92,445.29z"/>
	<path class="st36" d="M362.2,490.79c-4.21,0-7.64-3.43-7.79-7.79v-26.81c0-7.17,3.9-13.87,10.13-17.45l66.86-38.65
		c3.74-2.18,8.42-0.94,10.6,2.81c0.62,1.25,1.09,2.49,1.09,3.9v26.81c0,7.17-3.9,13.87-10.13,17.45L366.1,489.7
		C364.85,490.48,363.6,490.79,362.2,490.79z M435.29,400.56c-1.09,0-2.18,0.31-3.12,0.78l-66.86,38.65l0,0
		c-5.77,3.43-9.35,9.51-9.35,16.21V483c0,3.43,2.81,6.39,6.39,6.39c1.09,0,2.18-0.31,3.12-0.78l66.86-38.65
		c5.77-3.43,9.35-9.51,9.35-16.21v-26.81c0-2.34-1.25-4.36-3.12-5.45C437.48,400.87,436.38,400.56,435.29,400.56z M364.85,439.36
		L364.85,439.36z"/>
	
		<linearGradient id="SVGID_8_" gradientUnits="userSpaceOnUse" x1="423.3332" y1="813.8222" x2="765.9802" y2="1078.8904" gradientTransform="matrix(1 0 0 1 0 -410.11)">
		<stop  offset="0" style="stop-color:#00FFFF"/>
		<stop  offset="1" style="stop-color:#FFFFFF;stop-opacity:0"/>
	</linearGradient>
	<path class="st37" d="M795.3,382.48v528.01c0,5.3-4.36,9.66-9.66,9.66h-94.13L351.76,503.73c-0.62,0.31-1.56,0.16-1.87-0.47
		c-0.16-0.16-0.16-0.47-0.16-0.62v-57.66c0-1.71,0.94-3.43,2.49-4.21l93.66-54.23L795.3,382.48z"/>
	<g>
		<defs>
			<path id="SVGID_9_" d="M691.51,634.8v-50.03c0-2.65-2.18-4.68-4.68-4.68c-2.65,0-4.68,2.18-4.68,4.68v3.27
				c-1.56-0.62-3.27-0.47-4.68,0.31l-41.61,24c-0.94-8.57-1.4-17.92-1.4-17.92c0-16.68,2.49-25.56,4.21-36.47
				c2.49-15.9,6.23-35.84-10.13-48.94c-4.36-3.58-13.25-5.92-17.3-5.3l-1.71,0.31c-0.31-0.31-0.62-0.62-0.78-0.94
				c-0.47-0.78-0.78-1.56-0.94-2.34c-0.31-1.4-0.78-3.43-1.09-5.61c11.53-3.74,12.62-9.04,20.1-22.91
				c5.61-10.13,7.79-21.97,6.23-33.51c-0.78-5.92-7.32-12-15.74-15.74c-1.09-2.18-2.96-3.74-5.3-4.36
				c-23.53-7.17-40.99,2.96-46.6,10.44c-2.49,3.43-1.56,6.08,1.09,8.42c-3.9,18.39-2.18,37.71-0.47,45.35
				c1.56,7.32,4.05,16.68,12,17.14c0.78,0,1.56,0,2.49,0c0.78,3.43,1.56,6.55,1.87,8.1c0.62,2.18,0.62,4.52,0,6.55
				c-0.78,0.47-1.56,0.94-2.18,1.56c-1.71,1.25-3.43,2.49-4.99,4.05l-0.31,0.31c-16.68-6.39-29.92-12.94-31.01-12.62
				c-0.94,0.31-1.56,0.94-2.18,1.56c-2.96-1.09-5.14-2.34-8.57-3.27l0.31-0.16c0.47-0.31,0.47-1.09,0-1.4
				c-0.31-0.47-1.09-0.47-1.4,0l-1.4,1.25h-0.16c-8.42-1.4-12-1.4-17.3,2.34c-4.68,3.12-7.95,11.07,0.62,13.09l-3.27,2.96
				c-0.47,0.31-0.62,0.94-0.31,1.4c0.16,0.31,0.62,0.47,0.94,0.47s0.47-0.16,0.78-0.31l0.31-0.31c1.4,0.78,4.36,1.4,10.13,1.09
				c5.45-0.31,10.91-0.31,16.36,0.16c0.16,0.16,0.47,0.31,0.62,0.47c2.96,1.87,10.91,6.23,20.88,11.22
				c-12.47,15.43-13.71,16.21-30.39,26.34c-24.31,14.81-90.86,2.18-93.2,3.43l0,0c-0.62-0.31-1.4-0.47-2.18-0.78
				c-7.95-2.18-11.22-2.65-16.68,0.16c-5.45,2.81-12.94,13.25,0.94,14.81c5.61,0.47,11.07,1.4,16.52,2.65v0.16
				c0.47,1.25,1.4,2.18,2.81,2.49c9.82,2.65,64.83,12.78,84.16,8.26c2.81-0.78,5.61-1.71,8.26-2.81c-3.9,3.9-5.77,9.19-5.14,14.65
				c-5.14-2.18-9.82-3.58-13.56-3.74c-13.56-0.16-21.35,10.13-20.57,19.95v0.16c0.16,11.84,12.62,70.44,21.35,92.57
				c-12.47-2.03-31.79,4.83-26.34,11.38c4.52,5.45,16.83,10.75,28.21,13.56v7.95c0,7.95,4.21,15.43,11.22,19.48l74.96,43.48
				c2.18,1.25,5.14,0.47,6.39-1.71c1.25-2.18,0.47-5.14-1.71-6.39l0,0l-75.12-43.33c-4.05-2.34-6.55-6.7-6.55-11.22v-6.08
				c12.62,1.56,18.55-3.27,18.55-6.23c0-2.49-0.62-5.45-1.71-12.47c0.16-1.25,0.16-2.65,0.16-4.05c3.9,2.34,8.1,4.05,12.47,5.61
				c12.47,4.05,19.48,0,20.57-4.36c0.94-3.43,0.47-4.36,0.16-7.32v-0.16c0.94-2.18,0.78-7.48,0.16-14.65c2.49,1.4,5.3,2.34,8.1,2.81
				l12.62,7.32c2.03,1.09,4.21,1.87,6.39,2.03c2.03,3.43,4.83,6.23,8.26,8.26l75.12,43.48c0.78,0.47,1.56,0.62,2.34,0.62
				c2.65,0,4.68-2.18,4.68-4.68c0-1.71-0.94-3.27-2.34-4.05l-75.12-43.48c-1.09-0.62-2.03-1.4-2.96-2.34l62.65-36.16l8.26-4.83
				c0.94-0.62,1.56-1.56,1.56-2.65V663c0-1.09-0.62-2.18-1.56-2.81l-6.86-3.9c1.71-0.47,3.43-1.25,4.99-2.18
				C687.14,650.22,691.51,642.74,691.51,634.8z M558.57,576.04c0.16,5.61,0.31,10.6,0.47,15.12c-5.14-2.18-9.82-3.74-13.71-3.74
				c-1.56,0-3.27,0.16-4.83,0.47C546.72,584.14,552.8,580.25,558.57,576.04L558.57,576.04z M535.35,680.77
				c1.25-0.16,2.49,0,3.58,0.16c1.87,6.86,3.74,13.09,5.45,18.23c-2.03-0.47-4.21-0.78-6.23-0.94
				C537.22,692.61,536.28,686.69,535.35,680.77L535.35,680.77z M675.45,646.02c-4.05,2.34-9.04,2.34-13.09,0l-14.65-8.42
				l34.13-19.79v16.99C682,639.47,679.51,643.68,675.45,646.02L675.45,646.02z"/>
		</defs>
		<clipPath id="SVGID_10_">
			<use xlink:href="#SVGID_9_"  style="overflow:visible;"/>
		</clipPath>
		<g class="st38">
			<path class="st39" d="M670.62,440.14c-30.39-11.22-72-14.49-82.91,4.83c-10.91,19.33-9.35,37.4-5.3,45.97
				c4.05,8.57,12.16,30.08,3.27,39.43c-8.88,9.35-22.29,26.03-18.55,54.7c3.74,28.68,15.12,62.81,1.71,64.68
				c-13.25,1.87-71.38-40.68-84,0c-12.62,40.68-21.66,101.14,0,132.47c21.66,31.33,96.94,74.81,170.34,62.81
				s101.14-7.95,92.42-125.77C738.88,601.44,761.95,473.81,670.62,440.14z"/>
		</g>
	</g>
</g>
<g>
	
		<linearGradient id="SVGID_11_" gradientUnits="userSpaceOnUse" x1="-487.6696" y1="-1902.5037" x2="-399.9629" y2="-1783.9946" gradientTransform="matrix(0.444 -0.9009 0.9009 0.444 1895.1453 1028.3336)">
		<stop  offset="0" style="stop-color:#EF3B79"/>
		<stop  offset="0.113" style="stop-color:#EA3A79"/>
		<stop  offset="0.254" style="stop-color:#DA377A"/>
		<stop  offset="0.41" style="stop-color:#C1337B"/>
		<stop  offset="0.5767" style="stop-color:#9D2D7C"/>
		<stop  offset="0.7521" style="stop-color:#70257E"/>
		<stop  offset="0.932" style="stop-color:#391B80"/>
		<stop  offset="1" style="stop-color:#221781"/>
	</linearGradient>
	<path class="st40" d="M160.45,611.85C117.31,644.1,2.02,632.68,33.46,586.56c29.09-42.68,98,43,133.18-11.74L160.45,611.85z"/>
	<g class="st3">
		<g>
			<defs>
				<path id="SVGID_12_" d="M160.45,611.85C117.31,644.1,2.02,632.68,33.46,586.56c29.09-42.68,98,43,133.18-11.74L160.45,611.85z"
					/>
			</defs>
			<clipPath id="SVGID_13_">
				<use xlink:href="#SVGID_12_"  style="overflow:visible;"/>
			</clipPath>
			<g class="st41">
				<g>
					<path class="st5" d="M193.01,576.5c-0.49,0.3-50.73,35.66-99.28,33.18c-48.95-2.57-63.05-19.65-77.69-59.64l2.11-0.73
						c15.1,40.93,28.77,55.83,75.82,58.22c47.87,2.45,97.43-32.38,97.95-32.81L193.01,576.5z"/>
					<path class="st5" d="M63.81,604.39c-14.4,18.47-27.98,18.09-28.53,18.1l0.11-2.18c0.13,0.03,13.06,0.25,26.78-17.14
						L63.81,604.39z"/>
					<path class="st5" d="M97.14,608.71l-2.15-0.24c1.46-13.46-9.15-29-9.25-29.16l1.81-1.22
						C87.95,578.74,98.66,594.44,97.14,608.71z"/>
					<path class="st5" d="M121.58,607.02c-17.49,35.82-37.17,33.27-38.12,33.18l0.24-2.15c0.13,0.03,19.06,2.26,35.75-31.96
						L121.58,607.02z"/>
				</g>
			</g>
		</g>
	</g>
	
		<linearGradient id="SVGID_14_" gradientUnits="userSpaceOnUse" x1="146.5142" y1="423.6203" x2="146.5142" y2="423.6203" gradientTransform="matrix(0.9733 -0.2297 0.2297 0.9733 -94.6212 278.5352)">
		<stop  offset="0" style="stop-color:#EF3B79"/>
		<stop  offset="0.0579" style="stop-color:#D6377A"/>
		<stop  offset="0.1803" style="stop-color:#A72E7C"/>
		<stop  offset="0.3067" style="stop-color:#7E277D"/>
		<stop  offset="0.4352" style="stop-color:#5D217F"/>
		<stop  offset="0.5664" style="stop-color:#431D80"/>
		<stop  offset="0.7014" style="stop-color:#301A80"/>
		<stop  offset="0.8426" style="stop-color:#261881"/>
		<stop  offset="1" style="stop-color:#221781"/>
	</linearGradient>
	<path class="st42" d="M145.26,657.19"/>
	
		<linearGradient id="SVGID_15_" gradientUnits="userSpaceOnUse" x1="122.3987" y1="366.8367" x2="157.3512" y2="442.34" gradientTransform="matrix(0.9733 -0.2297 0.2297 0.9733 -94.6212 278.5352)">
		<stop  offset="0" style="stop-color:#EF3B79"/>
		<stop  offset="0.0579" style="stop-color:#D6377A"/>
		<stop  offset="0.1803" style="stop-color:#A72E7C"/>
		<stop  offset="0.3067" style="stop-color:#7E277D"/>
		<stop  offset="0.4352" style="stop-color:#5D217F"/>
		<stop  offset="0.5664" style="stop-color:#431D80"/>
		<stop  offset="0.7014" style="stop-color:#301A80"/>
		<stop  offset="0.8426" style="stop-color:#261881"/>
		<stop  offset="1" style="stop-color:#221781"/>
	</linearGradient>
	<path class="st43" d="M145.26,657.19c0.42-1.69,0.78-3.35,1.09-4.99L145.26,657.19z"/>
	
		<linearGradient id="SVGID_16_" gradientUnits="userSpaceOnUse" x1="128.7365" y1="363.9027" x2="163.689" y2="439.4061" gradientTransform="matrix(0.9733 -0.2297 0.2297 0.9733 -94.6212 278.5352)">
		<stop  offset="0" style="stop-color:#EF3B79"/>
		<stop  offset="0.0579" style="stop-color:#D6377A"/>
		<stop  offset="0.1803" style="stop-color:#A72E7C"/>
		<stop  offset="0.3067" style="stop-color:#7E277D"/>
		<stop  offset="0.4352" style="stop-color:#5D217F"/>
		<stop  offset="0.5664" style="stop-color:#431D80"/>
		<stop  offset="0.7014" style="stop-color:#301A80"/>
		<stop  offset="0.8426" style="stop-color:#261881"/>
		<stop  offset="1" style="stop-color:#221781"/>
	</linearGradient>
	<path class="st44" d="M156.44,642.42l-11.18,14.76C145.26,657.19,150.39,651.68,156.44,642.42z"/>
	
		<linearGradient id="SVGID_17_" gradientUnits="userSpaceOnUse" x1="1788.6254" y1="-1486.8843" x2="1913.1868" y2="-1217.8109" gradientTransform="matrix(-0.6029 0.7978 0.7978 0.6029 2349.7673 -90.3776)">
		<stop  offset="0" style="stop-color:#EF3B79"/>
		<stop  offset="0.0579" style="stop-color:#D6377A"/>
		<stop  offset="0.1803" style="stop-color:#A72E7C"/>
		<stop  offset="0.3067" style="stop-color:#7E277D"/>
		<stop  offset="0.4352" style="stop-color:#5D217F"/>
		<stop  offset="0.5664" style="stop-color:#431D80"/>
		<stop  offset="0.7014" style="stop-color:#301A80"/>
		<stop  offset="0.8426" style="stop-color:#261881"/>
		<stop  offset="1" style="stop-color:#221781"/>
	</linearGradient>
	<path class="st45" d="M164.15,629.1c8.29-16.39,15.08-38.38,9.92-61.65c-1.89-4.34-3.98-8.7-6.25-13.03l-11.65,53.06
		C159.18,614.89,161.83,622.16,164.15,629.1z"/>
	
		<linearGradient id="SVGID_18_" gradientUnits="userSpaceOnUse" x1="1820.2424" y1="-1501.5206" x2="1944.8037" y2="-1232.4473" gradientTransform="matrix(-0.6029 0.7978 0.7978 0.6029 2349.7673 -90.3776)">
		<stop  offset="0" style="stop-color:#EF3B79"/>
		<stop  offset="0.0579" style="stop-color:#D6377A"/>
		<stop  offset="0.1803" style="stop-color:#A72E7C"/>
		<stop  offset="0.3067" style="stop-color:#7E277D"/>
		<stop  offset="0.4352" style="stop-color:#5D217F"/>
		<stop  offset="0.5664" style="stop-color:#431D80"/>
		<stop  offset="0.7014" style="stop-color:#301A80"/>
		<stop  offset="0.8426" style="stop-color:#261881"/>
		<stop  offset="1" style="stop-color:#221781"/>
	</linearGradient>
	<path class="st46" d="M161.61,633.88c-2.04-6.27-4.34-12.83-6.94-19.55l-8.31,37.87c-0.31,1.63-0.68,3.3-1.09,4.99l11.18-14.76
		C158.13,639.85,159.88,636.99,161.61,633.88z"/>
	<path class="st5" d="M154.67,614.32c2.6,6.72,4.91,13.29,6.94,19.55c0.85-1.53,1.7-3.12,2.54-4.77
		c-2.32-6.95-4.97-14.21-7.98-21.63L154.67,614.32z"/>
	
		<linearGradient id="SVGID_19_" gradientUnits="userSpaceOnUse" x1="-50.7091" y1="-81.388" x2="303.3909" y2="683.5271" gradientTransform="matrix(0.9733 -0.2297 0.2297 0.9733 -94.6212 278.5352)">
		<stop  offset="0.2808" style="stop-color:#EF3B79"/>
		<stop  offset="0.3262" style="stop-color:#EA3A79"/>
		<stop  offset="0.3828" style="stop-color:#DA377A"/>
		<stop  offset="0.4455" style="stop-color:#C1337B"/>
		<stop  offset="0.5125" style="stop-color:#9D2D7C"/>
		<stop  offset="0.583" style="stop-color:#70257E"/>
		<stop  offset="0.6553" style="stop-color:#391B80"/>
		<stop  offset="0.6826" style="stop-color:#221781"/>
	</linearGradient>
	<path class="st47" d="M167.82,554.42c-6.96-13.29-15.63-26.45-25.35-38.83c-1.35-1.72-2.72-3.42-4.1-5.11
		c-25.01-30.43-55.97-55.4-82.39-64.68c-1.69-0.59-3.35-1.12-5-1.58c-23.98-6.73-43.45,0.65-50,30.38
		c-0.15,0.68-0.29,1.36-0.41,2.03c-0.25,1.34-0.45,2.65-0.6,3.94c-3.95,33.75,25.02,51.39,58.35,68.19
		c1.77,0.89,3.55,1.78,5.33,2.67c44.36,22.05,93.64,44.05,82.71,100.78c-0.31,1.63-0.68,3.3-1.09,4.99l11.18-14.76
		c1.68-2.57,3.43-5.43,5.17-8.55c0.85-1.53,1.7-3.12,2.54-4.77c8.29-16.39,15.08-38.38,9.92-61.65
		C172.18,563.11,170.09,558.76,167.82,554.42z"/>
	<path class="st48" d="M132.63,560.93c6.85-18.45,9.55-33.39,9.88-45.35c-1.35-1.72-2.72-3.42-4.1-5.11
		c0.4,11.71-1.62,26.9-8.51,46.22c-7.94-11.98-17.06-23.34-27.53-33.33c-15.23-14.56-29.05-25.34-42.24-32.9
		c3.05-21.16-0.27-35.68-4.11-44.68c-1.69-0.59-3.35-1.12-5-1.58c4.01,7.83,8.55,22.16,5.64,44.34
		c-19.02-10.16-36.89-13.6-56.05-11.94c-0.25,1.34-0.45,2.65-0.6,3.94c33.63-3.3,61.74,9.53,99.72,45.76
		c0.46,0.44,0.92,0.9,1.38,1.35c-12.37,13.22-33.95,19.13-42.75,21.08c1.77,0.89,3.55,1.78,5.33,2.67
		c10.66-2.77,28.73-8.93,40.13-21.03c23.61,24.2,39.9,55.51,50.89,83.94c2.6,6.72,4.91,13.29,6.94,19.55
		c0.85-1.53,1.7-3.12,2.54-4.77c-2.32-6.95-4.97-14.21-7.98-21.63C149.99,592.11,142.23,576.11,132.63,560.93z"/>
</g>
</svg>
