<?xml version="1.0" encoding="utf-8"?>
<!-- Generator: Adobe Illustrator 23.0.0, SVG Export Plug-In . SVG Version: 6.00 Build 0)  -->
<svg version="1.1" id="Layer_1" xmlns="http://www.w3.org/2000/svg" xmlns:xlink="http://www.w3.org/1999/xlink" x="0px" y="0px"
	 viewBox="0 0 330 231" style="enable-background:new 0 0 330 231;" xml:space="preserve">
<style type="text/css">
	.st0{fill:url(#SVGID_1_);}
	.st1{opacity:0.4;}
	.st2{clip-path:url(#SVGID_3_);}
	.st3{fill:#72D5E2;}
	.st4{fill:url(#SVGID_4_);}
	.st5{clip-path:url(#SVGID_6_);}
</style>
<linearGradient id="SVGID_1_" gradientUnits="userSpaceOnUse" x1="-401.1413" y1="1401.0476" x2="-276.4248" y2="1232.5312" gradientTransform="matrix(-0.8073 0.5975 -0.5975 -0.8073 712.6467 1276.8137)">
	<stop  offset="0" style="stop-color:#EF3B79"/>
	<stop  offset="0.113" style="stop-color:#EA3A79"/>
	<stop  offset="0.254" style="stop-color:#DA377A"/>
	<stop  offset="0.41" style="stop-color:#C1337B"/>
	<stop  offset="0.5767" style="stop-color:#9D2D7C"/>
	<stop  offset="0.7521" style="stop-color:#70257E"/>
	<stop  offset="0.932" style="stop-color:#391B80"/>
	<stop  offset="1" style="stop-color:#221781"/>
</linearGradient>
<path class="st0" d="M183.1,200.9c67.7-63.1-69.7-137.8-17.3-189.3c56.6-55.7,101.8,102.8,67.6,171.3L183.1,200.9z"/>
<g class="st1">
	<g>
		<g>
			<defs>
				<path id="SVGID_2_" d="M183.1,200.9c67.7-63.1-69.7-137.8-17.3-189.3c56.6-55.7,101.8,102.8,67.6,171.3L183.1,200.9z"/>
			</defs>
			<clipPath id="SVGID_3_">
				<use xlink:href="#SVGID_2_"  style="overflow:visible;"/>
			</clipPath>
			<g class="st2">
				<g>
					<path class="st3" d="M189.4,236.4c0.5-0.8,36.6-79,21.1-145.4c-15.3-65.2-39.6-80.6-100.7-91.3l0.5-3.1
						c59.7,10.3,87.1,25.8,103.1,93.6c15.8,67.3-21,146.6-21.2,147.3L189.4,236.4z"/>
					<path class="st3" d="M196.3,47.6C217.1,24,213.5,6,213.5,5.8l3-0.7c0.1,0.8,4.1,19.7-18.1,44.5L196.3,47.6z"/>
					<path class="st3" d="M167.6,89.5l1.2-2.8c0.2,0.1,24.7,11,43.1,5.6l0.9,2.9C193.3,100.9,168.6,89.9,167.6,89.5z"/>
					<path class="st3" d="M214.9,127c43.6-32,35.7-57.9,35.7-58.1l2.9-0.9c0.4,1.3,8.9,28.2-36.8,61.7L214.9,127z"/>
				</g>
			</g>
		</g>
	</g>
</g>
<linearGradient id="SVGID_4_" gradientUnits="userSpaceOnUse" x1="1062.8436" y1="1047.8683" x2="1239.9662" y2="665.2537" gradientTransform="matrix(0.6775 -0.7355 -0.7355 -0.6775 80.1864 1567.7926)">
	<stop  offset="0" style="stop-color:#EF3B79"/>
	<stop  offset="5.790000e-02" style="stop-color:#D6377A"/>
	<stop  offset="0.1803" style="stop-color:#A72E7C"/>
	<stop  offset="0.3067" style="stop-color:#7E277D"/>
	<stop  offset="0.4352" style="stop-color:#5D217F"/>
	<stop  offset="0.5664" style="stop-color:#431D80"/>
	<stop  offset="0.7014" style="stop-color:#301A80"/>
	<stop  offset="0.8426" style="stop-color:#261881"/>
	<stop  offset="1" style="stop-color:#221781"/>
</linearGradient>
<path class="st4" d="M267.3,230.2C134.4,238.7-89,59.3,38.2,6.1c118-49.3,145,221.4,292.1,155.6L267.3,230.2z"/>
<g class="st1">
	<g>
		<g>
			<defs>
				<path id="SVGID_5_" d="M267.3,230.2C134.4,238.7-89,59.3,38.2,6.1c118-49.3,145,221.4,292.1,155.6L267.3,230.2z"/>
			</defs>
			<clipPath id="SVGID_6_">
				<use xlink:href="#SVGID_5_"  style="overflow:visible;"/>
			</clipPath>
			<g class="st5">
				<g>
					<path class="st3" d="M382.7,201c-1.5,0-153.1,5.5-250.5-65.4C34.2,64.2,28.2,9.9,51.8-93l5.4,1.2c-24,105-15.7,154.4,78.4,223
						c95.9,69.7,245.7,64.4,247.1,64.5L382.7,201z"/>
					<path class="st3" d="M77.1,84.2c-54.8,18.9-82.4-0.3-83.5-1.1l3.2-4.4c0.3,0.2,26.8,18.3,78.6,0.5L77.1,84.2z"/>
					<path class="st3" d="M140.5,138.2l-4.2-3.5c21.1-25.9,20.3-72.4,20.3-72.8l5.5-0.1C162.1,63.9,162.9,110.8,140.5,138.2z"/>
					<path class="st3" d="M193.6,167.7C109,218.3,71.4,186.5,69.9,185l3.5-4.2c0.2,0.4,36.6,30.4,117.2-17.9L193.6,167.7z"/>
				</g>
			</g>
		</g>
	</g>
</g>
</svg>
