<?xml version="1.0" encoding="utf-8"?>
<!-- Generator: Adobe Illustrator 23.0.1, SVG Export Plug-In . SVG Version: 6.00 Build 0)  -->
<svg version="1.1" id="Layer_1" xmlns="http://www.w3.org/2000/svg" xmlns:xlink="http://www.w3.org/1999/xlink" x="0px" y="0px"
	 viewBox="0 0 330 231" style="enable-background:new 0 0 330 231;" xml:space="preserve">
<style type="text/css">
	.st0{fill:url(#SVGID_1_);}
	.st1{opacity:0.4;}
	.st2{clip-path:url(#SVGID_3_);}
	.st3{fill:#72D5E2;}
	.st4{fill:url(#SVGID_4_);}
	.st5{clip-path:url(#SVGID_6_);}
</style>
<linearGradient id="SVGID_1_" gradientUnits="userSpaceOnUse" x1="-578.5291" y1="-998.7052" x2="-453.8126" y2="-830.1888" gradientTransform="matrix(0.8073 0.5975 -0.5975 0.8073 -35.715 1069.5125)">
	<stop  offset="0" style="stop-color:#EF3B79"/>
	<stop  offset="0.113" style="stop-color:#EA3A79"/>
	<stop  offset="0.254" style="stop-color:#DA377A"/>
	<stop  offset="0.41" style="stop-color:#C1337B"/>
	<stop  offset="0.5767" style="stop-color:#9D2D7C"/>
	<stop  offset="0.7521" style="stop-color:#70257E"/>
	<stop  offset="0.932" style="stop-color:#391B80"/>
	<stop  offset="1" style="stop-color:#221781"/>
</linearGradient>
<path class="st0" d="M59.97,194.44C25.79,125.91,71-32.51,127.56,23.16c52.34,51.52-85.02,126.22-17.35,189.31L59.97,194.44z"/>
<g class="st1">
	<g>
		<defs>
			<path id="SVGID_2_" d="M59.97,194.44C25.79,125.91,71-32.51,127.56,23.16c52.34,51.52-85.02,126.22-17.35,189.31L59.97,194.44z"
				/>
		</defs>
		<clipPath id="SVGID_3_">
			<use xlink:href="#SVGID_2_"  style="overflow:visible;"/>
		</clipPath>
		<g class="st2">
			<g>
				<path class="st3" d="M101.17,248.96c-0.29-0.76-37.03-80.02-21.25-147.33C95.93,33.81,123.4,18.41,183.06,8.06l0.49,3.14
					c-61.1,10.76-85.4,26.09-100.68,91.33c-15.57,66.36,20.61,144.54,21.07,145.37L101.17,248.96z"/>
				<path class="st3" d="M94.92,61.11C72.72,36.27,76.7,17.37,76.83,16.6l3.02,0.71c-0.08,0.17-3.67,18.2,17.19,41.82L94.92,61.11z"
					/>
				<path class="st3" d="M80.42,106.66l0.89-2.95c18.46,5.45,42.89-5.45,43.14-5.55l1.25,2.85C124.68,101.4,100,112.39,80.42,106.66
					z"/>
				<path class="st3" d="M76.59,141.27c-45.68-33.55-37.13-60.44-36.76-61.74l2.95,0.89c-0.08,0.17-7.99,26.1,35.65,58.12
					L76.59,141.27z"/>
			</g>
		</g>
	</g>
</g>
<linearGradient id="SVGID_4_" gradientUnits="userSpaceOnUse" x1="1508.5762" y1="-620.5171" x2="1685.6989" y2="-237.9025" gradientTransform="matrix(-0.6775 -0.7355 -0.7355 0.6775 866.8297 1606.1356)">
	<stop  offset="0" style="stop-color:#EF3B79"/>
	<stop  offset="0.0579" style="stop-color:#D6377A"/>
	<stop  offset="0.1803" style="stop-color:#A72E7C"/>
	<stop  offset="0.3067" style="stop-color:#7E277D"/>
	<stop  offset="0.4352" style="stop-color:#5D217F"/>
	<stop  offset="0.5664" style="stop-color:#431D80"/>
	<stop  offset="0.7014" style="stop-color:#301A80"/>
	<stop  offset="0.8426" style="stop-color:#261881"/>
	<stop  offset="1" style="stop-color:#221781"/>
</linearGradient>
<path class="st4" d="M0.39,161.69C147.49,227.47,174.46-43.15,292.46,6.11c127.24,53.21-96.2,232.63-229.08,224.13L0.39,161.69z"/>
<g class="st1">
	<g>
		<defs>
			<path id="SVGID_5_" d="M0.39,161.69C147.49,227.47,174.46-43.15,292.46,6.11c127.24,53.21-96.2,232.63-229.08,224.13L0.39,161.69
				z"/>
		</defs>
		<clipPath id="SVGID_6_">
			<use xlink:href="#SVGID_5_"  style="overflow:visible;"/>
		</clipPath>
		<g class="st5">
			<g>
				<path class="st3" d="M-52.05,195.6c1.45-0.12,151.24,5.23,247.11-64.49c94.1-68.57,102.44-117.95,78.42-222.97l5.44-1.16
					C302.46,9.87,296.54,64.23,198.5,135.55C101.13,206.51-50.46,201.02-52,200.98L-52.05,195.6z"/>
				<path class="st3" d="M255.25,79.25c51.84,17.85,78.28-0.31,78.62-0.49l3.18,4.36c-1.09,0.8-28.7,20-83.47,1.12L255.25,79.25z"/>
				<path class="st3" d="M168.59,61.75l5.47,0.12c0.01,0.43-0.81,46.89,20.32,72.84l-4.18,3.52
					C167.84,110.78,168.64,63.89,168.59,61.75z"/>
				<path class="st3" d="M140.18,162.85c80.59,48.38,116.9,18.29,117.15,17.94l3.52,4.18c-1.59,1.49-39.13,33.32-123.71-17.27
					L140.18,162.85z"/>
			</g>
		</g>
	</g>
</g>
</svg>
