<svg xmlns="http://www.w3.org/2000/svg" xmlns:xlink="http://www.w3.org/1999/xlink" viewBox="0 0 577.18 669.04"><defs><style>.cls-1{fill:none;}.cls-2{isolation:isolate;}.cls-3{fill:url(#Gradient_bez_nazwy_12);}.cls-4{clip-path:url(#clip-path);}.cls-5{opacity:0.3;mix-blend-mode:color-dodge;}.cls-6{fill:#72d5e2;}.cls-7{fill:url(#Gradient_bez_nazwy_12-2);}.cls-8{clip-path:url(#clip-path-2);}.cls-33,.cls-9{fill:#808a94;}.cls-9{opacity:0.1;}.cls-39,.cls-9{mix-blend-mode:multiply;}.cls-10{fill:#e3e3e3;}.cls-11{fill:#fff;}.cls-12{fill:#cfe1e6;}.cls-13{fill:#8ea8ad;}.cls-14{fill:#8db9bf;}.cls-15{fill:#d1e6e8;}.cls-16{fill:#c4c4c4;}.cls-17{fill:#d6d6d6;}.cls-18{fill:#f0f0f0;}.cls-19{fill:#94a3a6;}.cls-20{fill:#b8a3f0;}.cls-21{fill:#d7eef2;}.cls-22{fill:#fff2e7;}.cls-23{fill:#e4eded;}.cls-24{fill:#d6491d;}.cls-25{fill:#4817cc;}.cls-26{fill:#ee5a25;}.cls-27{fill:#6123e8;}.cls-28{fill:#cacaca;}.cls-29{fill:#f6b5ae;}.cls-30{fill:#1c1e38;}.cls-31{fill:#f4911e;}.cls-32{fill:#c0cccc;}.cls-34{fill:#97babf;}.cls-35{fill:#f8fcff;}.cls-36{fill:#d6ebed;}.cls-37{opacity:0.2;mix-blend-mode:hard-light;fill:url(#Gradient_bez_nazwy_7);}.cls-38{clip-path:url(#clip-path-3);}.cls-39{fill:#317dba;opacity:0.4;}</style><linearGradient id="Gradient_bez_nazwy_12" x1="-50" y1="-791.24" x2="74.3" y2="-674.43" gradientTransform="matrix(0.98, 0.22, -0.22, 0.98, 52.1, 793.26)" gradientUnits="userSpaceOnUse"><stop offset="0" stop-color="#ef3b79"/><stop offset="1" stop-color="#221781"/></linearGradient><clipPath id="clip-path"><path class="cls-1" d="M262,212.72c-48.33-40.07-67-174-6.1-151C312.28,83,234,184.61,305.74,209.63Z"/></clipPath><linearGradient id="Gradient_bez_nazwy_12-2" x1="89.41" y1="-614.01" x2="234.76" y2="-300.03" gradientTransform="translate(64.57 620.46) rotate(14.67)" xlink:href="#Gradient_bez_nazwy_12"/><clipPath id="clip-path-2"><path class="cls-1" d="M286.46,280.8c-57.3-93-13.33-324.09,74.18-252.24,81.07,66.57-104.68,190.29-.33,271.57Z"/></clipPath><linearGradient id="Gradient_bez_nazwy_7" x1="203.45" y1="150.14" x2="547.78" y2="416.51" gradientUnits="userSpaceOnUse"><stop offset="0" stop-color="aqua"/><stop offset="1" stop-color="#fff" stop-opacity="0"/></linearGradient><clipPath id="clip-path-3"><path class="cls-1" d="M472.86,382.34V332a4.73,4.73,0,0,0-9.46,0v3.27a5.37,5.37,0,0,0-4.73.32l-41.82,24.15c-.94-8.63-1.43-18.06-1.43-18.06,0-16.82,2.53-25.62,4.21-36.65,2.46-15.9,6.3-36-10.14-49.15-4.43-3.55-13.32-5.95-17.34-5.29l-1.72.33a6.06,6.06,0,0,1-.77-1,8,8,0,0,1-.93-2.38c-.33-1.39-.74-3.42-1.16-5.64,11.65-3.82,12.73-9.06,20.27-23a53.88,53.88,0,0,0,6.29-33.6c-.72-5.92-7.39-12.12-15.8-15.78a8.11,8.11,0,0,0-5.35-4.35c-23.63-7.23-41.26,3.05-46.82,10.48-2.55,3.42-1.58,6.1,1.06,8.49-3.86,18.53-2.18,37.93-.52,45.53,1.61,7.35,4,16.69,12.11,17.15.71,0,1.59,0,2.56,0,.85,3.45,1.53,6.51,1.9,8.16a12.45,12.45,0,0,1,.05,6.65c-.77.5-1.51,1-2.25,1.55a35.67,35.67,0,0,0-5,4l-.29.24c-16.71-6.46-30-13-31.19-12.74a4.54,4.54,0,0,0-2.19,1.62c-2.92-1.08-5.18-2.42-8.69-3.33l.25-.23a1,1,0,1,0-1.41-1.54l-1.36,1.24-.12,0c-8.47-1.36-12-1.39-17.37,2.31-4.64,3.19-8,11.17.55,13.18l-3.29,3a1,1,0,0,0,.7,1.81,1.05,1.05,0,0,0,.71-.27l.32-.29c1.35.85,4.42,1.4,10.15,1.14a122.52,122.52,0,0,1,16.51.13,4,4,0,0,0,.63.51c3,1.9,11,6.28,21,11.25-12.53,15.48-13.73,16.27-30.61,26.5-24.44,14.82-91.35,2.26-93.66,3.52l0,0c-.67-.25-1.39-.5-2.2-.73-7.91-2.26-11.25-2.69-16.8.22s-13.06,13.38.95,14.86a127.08,127.08,0,0,1,16.54,2.65l.06.17a4.08,4.08,0,0,0,2.76,2.57c9.91,2.66,65.09,12.92,84.57,8.33a50.24,50.24,0,0,0,8.23-2.89,17.94,17.94,0,0,0-5.23,14.73c-5.15-2.22-9.83-3.67-13.57-3.72-13.66-.21-21.51,10.17-20.6,20.11,0,0,0,.08,0,.12.22,11.85,12.69,70.82,21.53,93.09-12.58-2-31.93,4.8-26.51,11.4,4.52,5.52,16.9,10.78,28.32,13.64v8a22.6,22.6,0,0,0,11.27,19.52L381.38,561a4.72,4.72,0,0,0,4.72-8.18l-75.47-43.58a13.13,13.13,0,0,1-6.55-11.34v-6.16c12.7,1.57,18.62-3.31,18.62-6.19,0-2.53-.68-5.51-1.68-12.6a37.59,37.59,0,0,0,.1-4,69.41,69.41,0,0,0,12.56,5.59c12.49,4.12,19.56-.07,20.74-4.33.95-3.46.45-4.42.12-7.29l0-.1c.9-2.2.81-7.56.12-14.67a22.64,22.64,0,0,0,8.16,2.8l12.7,7.33a16.47,16.47,0,0,0,6.43,2.07,22.53,22.53,0,0,0,8.28,8.34l75.49,43.62a4.77,4.77,0,0,0,2.36.63,4.73,4.73,0,0,0,2.36-8.82L395,460.47a13,13,0,0,1-2.92-2.33l63-36.36,8.32-4.8a3.13,3.13,0,0,0,1.58-2.74V410.7a3.14,3.14,0,0,0-1.58-2.75L456.54,404a22.86,22.86,0,0,0,5-2.14A22.31,22.31,0,0,0,472.86,382.34Zm-133.55-59q.26,8.35.41,15.14c-5.21-2.26-9.94-3.74-13.71-3.79a24,24,0,0,0-4.82.43A209.81,209.81,0,0,0,339.31,323.33Zm-23.39,105.2a12.78,12.78,0,0,1,3.65.17c1.85,6.87,3.73,13.16,5.51,18.33a35.38,35.38,0,0,0-6.34-1C317.91,440.46,317,434.5,315.92,428.53Zm140.94-34.84a13,13,0,0,1-13.1,0l-14.69-8.48,34.33-19.83v17A13,13,0,0,1,456.86,393.69Z"/></clipPath></defs><title>homeimg</title><g class="cls-2"><g id="Layer_2" data-name="Layer 2"><g id="dizajn"><path class="cls-3" d="M262,212.72c-48.33-40.07-67-174-6.1-151C312.28,83,234,184.61,305.74,209.63Z"/><g class="cls-4"><g class="cls-5"><path class="cls-6" d="M311,240c-.54-.47-54.32-47.7-64.81-103.54-10.55-56.18,5-76.82,46.37-104.5L294,34.11C251.79,62.38,238.61,82,248.75,136c10.32,55,63.42,101.6,64,102.07Z"/><path class="cls-6" d="M243.92,101.1C219,89.83,215.73,74.28,215.61,73.63l2.53-.5c0,.15,3.27,14.94,26.84,25.61Z"/><path class="cls-6" d="M248.17,140.11l-.34-2.56c15.65-2.06,30.38-18.27,30.53-18.44l1.92,1.74C279.66,121.54,264.75,137.93,248.17,140.11Z"/><path class="cls-6" d="M256.86,167.38c-45.37-10-48-33.1-48.05-34.08l2.57-.24c0,.22,2.7,22.25,46,31.79Z"/></g></g><path class="cls-7" d="M286.46,280.8c-57.3-93-13.33-324.09,74.18-252.24,81.07,66.57-104.68,190.29-.33,271.57Z"/><g class="cls-8"><g class="cls-5"><path class="cls-6" d="M352.05,353.12c-.63-1.07-62.91-108.91-49-206.78C317,47.88,354.14,22.56,437.7,0l1.18,4.35c-85.34,23-118,48.05-131.42,142.62-13.64,96.34,47.85,202.82,48.47,203.88Z"/><path class="cls-6" d="M319,86.78c-34.74-32.45-31.48-59.9-31.33-61l4.46.59c0,.26-3,26.44,29.94,57.17Z"/><path class="cls-6" d="M304.21,153.45l.87-4.42c26.94,5.34,60.26-13.16,60.6-13.34l2.2,3.92C366.46,140.41,332.76,159.1,304.21,153.45Z"/><path class="cls-6" d="M303.33,203.23c-69.19-41.77-60.58-81.3-60.18-83l4.38,1c-.09.38-8,38.17,58.13,78.07Z"/></g></g><path class="cls-9" d="M0,448.5a9.14,9.14,0,0,0,.34,2.43,8.48,8.48,0,0,0,3.32,4.71,7.05,7.05,0,0,0,.7.46l156.55,90.36a8.71,8.71,0,0,0,8.77,0L442.24,389.08a8.61,8.61,0,0,0,4.05-5.14,8.72,8.72,0,0,0-4.05-10L285.72,283.54a8.8,8.8,0,0,0-8.77,0L4.36,440.92A8.53,8.53,0,0,0,1,444.52,8.83,8.83,0,0,0,0,448.5Z"/><path class="cls-10" d="M1,308.09H3.66v1.73a5.64,5.64,0,0,1,.7-.46L277,152a8.8,8.8,0,0,1,8.77,0l156.52,90.39a8.74,8.74,0,0,1,2.52,2.17h1.85l0,.53v9.47a.5.5,0,0,1,0,.12,8.65,8.65,0,0,1-4.37,7.46L169.68,419.49a8.71,8.71,0,0,1-8.77,0L4.36,329.13a9,9,0,0,1-2.63-2.34A8.86,8.86,0,0,1,0,321.53v-9.47A8.79,8.79,0,0,1,1,308.09Z"/><path class="cls-11" d="M0,312.06a9.21,9.21,0,0,0,.34,2.44,8.43,8.43,0,0,0,3.32,4.7,5.64,5.64,0,0,0,.7.46L160.91,410a8.66,8.66,0,0,0,8.77,0L442.24,252.65a8.63,8.63,0,0,0,4.05-5.14,8.74,8.74,0,0,0-4.05-10L285.72,147.11a8.8,8.8,0,0,0-8.77,0L4.36,304.48A8.49,8.49,0,0,0,1,308.09,8.79,8.79,0,0,0,0,312.06Z"/><path class="cls-12" d="M211.16,305.22,257.46,332a2,2,0,0,1,0,3.4l-44.32,25.59a10.17,10.17,0,0,1-10.15,0l-44.32-25.59a2,2,0,0,1,0-3.4L205,305.22A6.24,6.24,0,0,1,211.16,305.22Z"/><path class="cls-13" d="M184.84,329.26c-1.22,6.31,6.13,12.92,16.42,14.75s19.64-1.78,20.87-8.09S216,323,205.71,321.16,186.07,323,184.84,329.26Z"/><path class="cls-14" d="M186.76,326.28c-1.26,6.3,5.63,12.81,15.41,14.53s18.71-2,20-8.29S216.5,319.71,206.73,318,188,320,186.76,326.28Z"/><ellipse class="cls-9" cx="281.31" cy="179.12" rx="12.97" ry="7.66"/><path class="cls-11" d="M268.24,170.4a13.07,13.07,0,0,0,25.51,4,12.93,12.93,0,0,0,.63-4,13.08,13.08,0,0,0-13.07-13.08,12.38,12.38,0,0,0-2.3.21,13.08,13.08,0,0,0-10.57,10.56A13.5,13.5,0,0,0,268.24,170.4Z"/><path class="cls-15" d="M281.31,184.17a13.79,13.79,0,0,1-13.77-13.77,14.08,14.08,0,0,1,.22-2.43,13.8,13.8,0,0,1,11.13-11.13,14,14,0,0,1,2.42-.21,13.78,13.78,0,0,1,13.77,13.77,13.59,13.59,0,0,1-.67,4.21,13.75,13.75,0,0,1-8.88,8.89A13.6,13.6,0,0,1,281.31,184.17Zm0-26.15a13.06,13.06,0,0,0-2.17.19,12.41,12.41,0,0,0-10,10,12.11,12.11,0,0,0-.19,2.18A12.37,12.37,0,1,0,281.31,158Z"/><path class="cls-15" d="M280.91,184.17a.69.69,0,0,1-.6-.34.7.7,0,0,1,.24-1,9.36,9.36,0,0,0,4.88-7,7.49,7.49,0,0,0-2.47-6.28,9.34,9.34,0,0,0-8-2.66,8.52,8.52,0,0,0-6.06,4.66.69.69,0,0,1-1.24-.62,9.88,9.88,0,0,1,7.05-5.41,10.74,10.74,0,0,1,9.23,3,8.85,8.85,0,0,1,2.91,7.45c-.31,3.19-2.28,6-5.55,8A.66.66,0,0,1,280.91,184.17Z"/><path class="cls-15" d="M293.7,170.81c-2,0-4.77-1.87-6.88-4-2.6-2.6-3.06-4.89-3-6.35a4.41,4.41,0,0,1,1.22-3,.7.7,0,0,1,.88,1.08,3.21,3.21,0,0,0-.71,2c-.06,1.18.34,3.06,2.59,5.3,2.4,2.41,5.16,4,6.31,3.5a.69.69,0,1,1,.51,1.29A2.33,2.33,0,0,1,293.7,170.81Z"/><polygon class="cls-16" points="284.9 260.95 356.04 302.02 308.61 329.4 237.48 288.33 284.9 260.95"/><polygon class="cls-17" points="284.9 259.96 356.04 301.03 308.61 328.41 237.48 287.34 284.9 259.96"/><polygon class="cls-18" points="284.9 258.96 356.04 300.03 308.61 327.41 237.48 286.34 284.9 258.96"/><path class="cls-19" d="M307.33,327.9a1.46,1.46,0,0,0,1-.43,1.43,1.43,0,0,0,.43-1,1.25,1.25,0,0,0-.13-.59,1.58,1.58,0,0,0-.28-.43,1.53,1.53,0,0,0-2.1,0,1.79,1.79,0,0,0-.32.49,1.55,1.55,0,0,0-.11.56,1.47,1.47,0,0,0,1.47,1.47Zm0-1.93a.53.53,0,0,1,.35.12.61.61,0,0,1,.09.16.42.42,0,0,1,0,.18.47.47,0,0,1-.13.34.5.5,0,0,1-.68,0,.46.46,0,0,1-.14-.34.5.5,0,0,1,.16-.35A.41.41,0,0,1,307.32,326Z"/><path class="cls-19" d="M299.61,323.45a1.47,1.47,0,1,0-1.42-1.09,1.43,1.43,0,0,0,.68.88A1.39,1.39,0,0,0,299.61,323.45Zm0-1.95a.46.46,0,0,1,.23.06.48.48,0,0,1,.18.65h0a.49.49,0,0,1-.64.17.47.47,0,0,1-.23-.29.46.46,0,0,1,.05-.36A.49.49,0,0,1,299.61,321.5ZM291.89,319a1.45,1.45,0,0,0,1.27-.73,1.43,1.43,0,0,0,.15-1.11,1.47,1.47,0,0,0-.68-.9,1.47,1.47,0,0,0-2.16,1.66,1.46,1.46,0,0,0,1.42,1.08Zm0-1.94a.53.53,0,0,1,.24.06.49.49,0,0,1,.22.29.53.53,0,0,1-.05.37h0a.45.45,0,0,1-.64.16.47.47,0,0,1,.24-.88Zm-7.72-2.51a1.49,1.49,0,0,0,1.27-.72h0a1.46,1.46,0,0,0,.14-1.12,1.48,1.48,0,0,0-1.8-1,1.42,1.42,0,0,0-.89.68,1.47,1.47,0,0,0,.53,2A1.49,1.49,0,0,0,284.17,314.53Zm.42-1.23a.51.51,0,0,1-.66.17.46.46,0,0,1-.22-.29.5.5,0,0,1,.05-.36.49.49,0,0,1,.29-.22.48.48,0,0,1,.35,0,.44.44,0,0,1,.23.29A.5.5,0,0,1,284.59,313.3Zm-8.14-3.23a1.47,1.47,0,0,0,.74-2.74,1.48,1.48,0,0,0-1.49,2.55A1.55,1.55,0,0,0,276.45,310.07Zm0-1.94a.5.5,0,0,1,.24.06.49.49,0,0,1,.22.29.5.5,0,0,1-.05.36h0a.49.49,0,0,1-.66.17.48.48,0,0,1-.16-.64A.49.49,0,0,1,276.45,308.13Zm-7.72-2.51a1.47,1.47,0,1,0-.74-.2A1.52,1.52,0,0,0,268.73,305.62Zm0-1.95a.5.5,0,0,1,.24.06.47.47,0,0,1,.17.65h0a.47.47,0,1,1-.81-.49A.48.48,0,0,1,268.73,303.67ZM261,301.16a1.45,1.45,0,0,0,1.27-.73h0a1.48,1.48,0,0,0-.54-2,1.46,1.46,0,0,0-1.12-.15,1.44,1.44,0,0,0-.89.69,1.46,1.46,0,0,0-.15,1.12,1.42,1.42,0,0,0,.69.88A1.49,1.49,0,0,0,261,301.16Zm.42-1.23a.46.46,0,0,1-.66.16.42.42,0,0,1-.22-.27.5.5,0,0,1,.05-.36.47.47,0,0,1,.29-.23.39.39,0,0,1,.35,0A.48.48,0,0,1,261.43,299.93Zm-8.14-3.22a1.44,1.44,0,0,0,1.27-.74,1.47,1.47,0,1,0-2.69-.36,1.49,1.49,0,0,0,.69.9A1.54,1.54,0,0,0,253.29,296.71Zm0-1.95a.5.5,0,0,1,.24.06.47.47,0,0,1,.17.65h0a.48.48,0,0,1-.64.17.5.5,0,0,1-.23-.3.5.5,0,0,1,0-.36A.48.48,0,0,1,253.29,294.76Zm-7.72-2.52a1.5,1.5,0,0,0,1.28-.73h0a1.48,1.48,0,0,0-1.66-2.15,1.41,1.41,0,0,0-.89.69,1.49,1.49,0,0,0,.53,2A1.51,1.51,0,0,0,245.57,292.24ZM246,291a.5.5,0,0,1-.66.17.48.48,0,0,1-.17-.65.47.47,0,0,1,.29-.22.46.46,0,0,1,.36.06A.47.47,0,0,1,246,291Z"/><path class="cls-19" d="M237.85,287.79a1.78,1.78,0,0,0,.56-.1,1.58,1.58,0,0,0,.48-.33,1.69,1.69,0,0,0,.33-.49,1.58,1.58,0,0,0,.1-.55,1.43,1.43,0,0,0-.11-.56,1.54,1.54,0,0,0-.3-.47,1.48,1.48,0,0,0-1.62-.33,1.54,1.54,0,0,0-.47.31,1.47,1.47,0,0,0-.44,1.05,1.38,1.38,0,0,0,.12.56,1.19,1.19,0,0,0,.32.48,1.46,1.46,0,0,0,.47.32A1.47,1.47,0,0,0,237.85,287.79Zm0-1.94a.58.58,0,0,1,.19,0,.56.56,0,0,1,.15.1.7.7,0,0,1,.1.16.47.47,0,0,1-.12.53.43.43,0,0,1-.13.09.59.59,0,0,1-.37,0,.65.65,0,0,1-.15-.1.63.63,0,0,1-.1-.15.59.59,0,0,1,0-.19.58.58,0,0,1,0-.18.57.57,0,0,1,.11-.16.56.56,0,0,1,.15-.1Z"/><polygon class="cls-20" points="144.04 323.64 87.08 355.96 35.72 289.25 88.35 266.24 144.04 323.64"/><polygon class="cls-21" points="137.44 323.45 79.27 354.08 30.24 286.43 83.62 264.88 137.44 323.45"/><polygon class="cls-22" points="127.27 333.85 63.87 356.19 28.41 284.98 81.84 268.82 127.27 333.85"/><path class="cls-9" d="M272.44,509.31a4.27,4.27,0,0,0,.75,2.43,4.34,4.34,0,0,0,1.42,1.33l13.12,7.57,84.81,49a22.44,22.44,0,0,0,22.42,0l86.52-50,11.39-6.57a4.37,4.37,0,0,0,1.43-1.33,4.34,4.34,0,0,0-1.43-6.18L481.48,499,390.59,446.5a13.69,13.69,0,0,0-13.7,0L287.73,498l-13.12,7.58A4.29,4.29,0,0,0,272.44,509.31Z"/><path class="cls-23" d="M468.13,512.9a4.73,4.73,0,0,0,2.36-8.82L395,460.47a13.14,13.14,0,0,1-6.54-11.34V395.36A13.1,13.1,0,0,1,408.12,384L439,401.87a22.56,22.56,0,0,0,33.83-19.53V332a4.73,4.73,0,0,0-9.46,0v50.3a13.09,13.09,0,0,1-19.64,11.35l-30.92-17.85A22.55,22.55,0,0,0,379,395.36v53.77a22.61,22.61,0,0,0,11.26,19.52l75.49,43.62A4.77,4.77,0,0,0,468.13,512.9Z"/><path class="cls-24" d="M354.42,455.56c-.56,9.92,1.48,9.23,0,14.61-1.18,4.26-8.25,8.45-20.74,4.33s-23.91-11.92-28.28-19.88,11.27-11.48,24.42-6c9.44,3.92,24.6,7,24.6,7"/><path class="cls-25" d="M342.05,370.78c2.66,17.7,16.34,82.75,12.54,92s-15.91,9-24.54-4.22S305.64,372.29,305.4,359C305.19,347.1,338.56,347.54,342.05,370.78Z"/><path class="cls-25" d="M360.12,398.41c-17-10.33-47.05-26.16-52.9-37.38s2.19-26.6,18.79-26.35,51.68,27.83,64.26,29.53S382.46,412,360.12,398.41Z"/><path class="cls-26" d="M320.51,469.22c1.28,9.84,2.19,13.35,2.19,16.28s-6.06,7.89-19.09,6.14-31.55-8.39-37.3-15.41,16.48-14.28,28.81-10.91c9.86,2.7,25.39,3.9,25.39,3.9"/><path class="cls-27" d="M307.94,383.56c2.67,17.7,16.34,82.75,12.54,92s-15.9,9-24.54-4.21-24.41-86.27-24.65-99.61C271.08,359.88,304.45,360.32,307.94,383.56Z"/><path class="cls-28" d="M304.1,408l9.57-5.53V406l65.07-37.57a10,10,0,0,1,10,0l66.32,38.3v-3.54l8.32,4.8A3.12,3.12,0,0,1,465,410.7v3.54a3.13,3.13,0,0,1-1.58,2.74l-8.32,4.8-63.13,36.46a16.42,16.42,0,0,1-16.36,0l-61.9-35.73L304.1,417a3.13,3.13,0,0,1-1.58-2.74V410.7A3.12,3.12,0,0,1,304.1,408Z"/><path class="cls-11" d="M302.52,410.7a3.15,3.15,0,0,0,.54,1.77,3.24,3.24,0,0,0,1,1l9.57,5.53,61.9,35.72a16.37,16.37,0,0,0,16.36,0l63.13-36.46,8.32-4.79a3.14,3.14,0,0,0,1-1,3.07,3.07,0,0,0,.54-1.77,3.12,3.12,0,0,0-1.58-2.74l-8.32-4.8-66.32-38.3a10,10,0,0,0-10,0l-65.07,37.57L304.1,408A3.12,3.12,0,0,0,302.52,410.7Z"/><path class="cls-29" d="M384.26,279c-13.87,5.26-24.79-.37-28.5-3.27s4.67-8.67,7.16-13c1.07-1.86,1.06-4.49.35-7.66-.95-4.28-4-17.87-6.65-23.66l28.46-3.52s2.4,14.39,3.65,19.68a8,8,0,0,0,.93,2.38c1.84,3.06,5.62,3.64,12.14,6.69C409.73,260.34,398.13,273.77,384.26,279Z"/><path class="cls-29" d="M404.22,209.57c-3,17-3.47,22.76-11.87,29.31s-27,8.36-33.54,8c-8.15-.46-10.5-9.8-12.11-17.15-1.66-7.61-3.34-27.05.54-45.61,2-9.41,15.17-20.2,28-19.48S411.49,168.09,404.22,209.57Z"/><path class="cls-30" d="M353.55,202.82c1.26,14.92,5.7,17.46,9.93,26.8,3.94,8.71,14.42,15.11,22,12.94,13.63-3.9,14.37-8.92,22.34-23.61a53.88,53.88,0,0,0,6.29-33.6c-1-8.29-13.32-18.67-26.43-19.06S350.48,166.4,353.55,202.82Z"/><path class="cls-29" d="M348.57,221.45c.58,5.55,4.73,9.82,9.28,9.52s7.78-5,7.2-10.6-4.73-9.82-9.28-9.52S348,215.89,348.57,221.45Z"/><path class="cls-30" d="M360.48,192.08c-8.85-5-19.87-9-14.32-16.38S369.35,158,393,165.22,360.48,192.08,360.48,192.08Z"/><path class="cls-29" d="M331.44,258.06c-10.42-.4-11.94-4.21-20.41-5.57s-12-1.39-17.37,2.31-9.12,13.85,5.57,13.66,16.28,2.6,24.87,3.64C333.25,273.2,331.44,258.06,331.44,258.06Z"/><path class="cls-30" d="M291.62,272.8a1,1,0,0,1-.7-1.81l21.59-19.71a1,1,0,1,1,1.41,1.54l-21.59,19.71A1.05,1.05,0,0,1,291.62,272.8Z"/><path class="cls-29" d="M333.4,267.71c-10.39.24-12.37-1.32-20.95-1.57s-12.07-.13-16.93,1.65-7.26,6.24,7.28,5.59,16.47.48,25.12.58C337.13,274.08,333.4,267.71,333.4,267.71Z"/><path class="cls-26" d="M398.32,306.84c-20-1.33-69.69-27.36-78.38-32.82a4.06,4.06,0,0,1-1.88-3.26c-.53-8.64,4.11-15.53,6.49-16,2.58-.52,62.83,31.15,90.55,24.17"/><path class="cls-27" d="M420,376.33c3.13,14.62,5.22,27.65-1.39,34.88s-26.26,19.41-54.9,14.89-48.68-13.21-44.64-21.17,1-28.6,32-25.82S420,376.33,420,376.33Z"/><path class="cls-27" d="M326,415.24c-17-10.33-47-26.16-52.9-37.38s2.2-26.6,18.79-26.35,51.68,27.82,64.27,29.52S348.36,428.8,326,415.24Z"/><path class="cls-31" d="M339.82,380.07c-.16,7.82,1.57,19.4,17.43,22.95,17.72,4,36,1.54,49-5.47,16-8.6,15.13-12.92,11.93-28.51-1.84-8.91-2.78-27.32-2.78-27.32,0-16.82,2.53-25.62,4.21-36.65,2.46-15.9,6.3-36-10.14-49.15-4.43-3.55-13.32-5.95-17.34-5.29-19,3.18-43.36,14.84-51,39.34a53.86,53.86,0,0,0-1.84,8.35,58.77,58.77,0,0,0-.51,10.33c.64,18.12,1,31.52,1.12,41.63,0,.35,0,.7,0,1C340.19,367.87,339.93,375.24,339.82,380.07Z"/><path class="cls-26" d="M338.83,308.65c.64,18.12,1,31.52,1.12,41.63a280.25,280.25,0,0,0,21.14-32.85c11.5-21.67,10.22-36.48-6.51-34.72a19,19,0,0,0-13.4,7.26,53.86,53.86,0,0,0-1.84,8.35A58.77,58.77,0,0,0,338.83,308.65Z"/><path class="cls-11" d="M382.45,382.79V402.7a5.45,5.45,0,0,0,5.46,5.45h0a5.27,5.27,0,0,0,2.69-.73L464.12,365a5.44,5.44,0,0,0,2.72-4.7V340.35a5.36,5.36,0,0,0-1.73-4,5.42,5.42,0,0,0-6.44-.75l-73.5,42.44A5.45,5.45,0,0,0,382.45,382.79Z"/><path class="cls-28" d="M386.19,384.26v19.92a5.4,5.4,0,0,0,1.72,4h0a5.27,5.27,0,0,0,2.69-.73L464.12,365a5.44,5.44,0,0,0,2.72-4.7V340.35a5.36,5.36,0,0,0-1.73-4,5.24,5.24,0,0,0-2.69.73l-73.51,42.44A5.43,5.43,0,0,0,386.19,384.26Z"/><path class="cls-23" d="M383.74,561.58a4.72,4.72,0,0,0,2.36-8.81l-75.47-43.58a13.13,13.13,0,0,1-6.55-11.34V441.57a13.1,13.1,0,0,1,19.65-11.35l30.91,17.85a22.56,22.56,0,0,0,33.83-19.52V378.24a4.73,4.73,0,1,0-9.45,0v50.31a13.1,13.1,0,0,1-19.65,11.34L328.45,422a22.55,22.55,0,0,0-33.82,19.53v56.28a22.6,22.6,0,0,0,11.27,19.52L381.38,561A4.69,4.69,0,0,0,383.74,561.58Z"/><path class="cls-29" d="M233.2,322.21c-9.88-1.57-10.89-5.36-18.81-7.62s-11.25-2.69-16.8.22-13.06,13.38.95,14.86,18,3.11,26.07,5.07C233.2,336.83,233.2,322.21,233.2,322.21Z"/><path class="cls-31" d="M374.23,293c-16.09,18-52.91,46-71.76,50.42-19.48,4.59-74.66-5.67-84.57-8.33a4.08,4.08,0,0,1-2.76-2.57c-3-8.1-.63-16.05,1.5-17.2,2.31-1.26,69.22,11.3,93.66-3.52,17.06-10.34,18.08-11,31-27,10.43-12.89,19-27.61,36.08-25S389.46,275.91,374.23,293Z"/><path class="cls-32" d="M127.52,259.88h1v.65l.27-.17L232,200.79a3.33,3.33,0,0,1,3.32,0L294.55,235a3.49,3.49,0,0,1,.95.83h.7v2a.43.43,0,0,1,0,0,3.25,3.25,0,0,1-1.65,2.82L191.38,300.31a3.29,3.29,0,0,1-3.32,0l-59.25-34.2a3.46,3.46,0,0,1-1-.89,3.38,3.38,0,0,1-.65-2v-1.85A3.31,3.31,0,0,1,127.52,259.88Z"/><path class="cls-23" d="M127.16,261.38a3.34,3.34,0,0,0,1.38,2.71l.27.17,59.25,34.2a3.29,3.29,0,0,0,3.32,0L294.55,238.9a3.25,3.25,0,0,0,1.53-2,3.3,3.3,0,0,0-1.53-3.79L235.3,199a3.33,3.33,0,0,0-3.32,0L128.81,258.51a3.33,3.33,0,0,0-1.65,2.87Z"/><path class="cls-32" d="M217.26,260.23l12.24,7.07a1.73,1.73,0,0,0,1.76,0l17.28-10a1.76,1.76,0,0,0,0-3l-12.24-7.07a1.73,1.73,0,0,0-1.76,0l-17.28,10A1.76,1.76,0,0,0,217.26,260.23Z"/><path class="cls-33" d="M259.2,222.33l-24.52-14.16a2.07,2.07,0,0,0-2.07,0l-89.06,51.42a2.07,2.07,0,0,0,0,3.59l24.52,14.15a2.07,2.07,0,0,0,2.07,0l89.06-51.41A2.07,2.07,0,0,0,259.2,222.33Z"/><path class="cls-34" d="M233.64,127.66v68.42A3.33,3.33,0,0,1,232,199L128.81,258.51a3.31,3.31,0,0,1-5-2.87V187.23a3.33,3.33,0,0,1,1.66-2.88l103.17-59.56A3.31,3.31,0,0,1,233.64,127.66Z"/><path class="cls-35" d="M228.11,191.94V133.89A1.38,1.38,0,0,0,226,132.7l-94.19,54.38a5,5,0,0,0-2.48,4.28v58a1.38,1.38,0,0,0,2.07,1.2l94.19-54.39A4.93,4.93,0,0,0,228.11,191.94Z"/><path class="cls-36" d="M142,237.7a7.8,7.8,0,0,1-7.76-7.77V203a20.33,20.33,0,0,1,10.14-17.55l67.22-38.81a7.76,7.76,0,0,1,11.64,6.71v26.91a20.32,20.32,0,0,1-10.13,17.55l-67.23,38.81A7.69,7.69,0,0,1,142,237.7ZM215.48,147a6.38,6.38,0,0,0-3.18.86l-67.23,38.82h0A18.9,18.9,0,0,0,135.64,203v26.91a6.36,6.36,0,0,0,9.54,5.51l67.23-38.82a18.9,18.9,0,0,0,9.43-16.34V153.37a6.3,6.3,0,0,0-3.18-5.51A6.41,6.41,0,0,0,215.48,147Zm-70.76,39.07h0Z"/><path class="cls-37" d="M577.18,128.76V659.29a9.75,9.75,0,0,1-9.74,9.75H472.85L131.43,250.6a1.38,1.38,0,0,1-2.06-1.2v-58a4.92,4.92,0,0,1,2.48-4.29L226,132.68Z"/><g class="cls-38"><path class="cls-39" d="M451.88,186.78c-30.51-11.22-72.42-14.5-83.26,4.87s-9.45,37.66-5.37,46.27,12.19,30.19,3.31,39.69-22.34,26.2-18.63,55,15.18,63.11,1.79,65-71.78-40.84-84.35,0-21.77,101.63,0,133.19,97.4,75.16,171.2,63.11,101.63-8.06,92.81-126.31S543.77,220.56,451.88,186.78Z"/></g></g></g></g></svg>