<?xml version="1.0" encoding="utf-8"?>
<!-- Generator: Adobe Illustrator 22.1.0, SVG Export Plug-In . SVG Version: 6.00 Build 0)  -->
<svg version="1.1" id="Layer_1" xmlns="http://www.w3.org/2000/svg" xmlns:xlink="http://www.w3.org/1999/xlink" x="0px" y="0px"
	 viewBox="0 0 82 78" style="enable-background:new 0 0 82 78;" xml:space="preserve">
<style type="text/css">
	.st0{fill:#F6E16A;}
	.st1{fill:#FF57BB;}
	.st2{fill:#B362F1;}
	.st3{fill:#201F3F;}
</style>
<path class="st0" d="M46.2,49.5h25.4c2.9,0,5.2,2.4,5.2,5.2v0.7c0,2.9-2.4,5.2-5.2,5.2H46.2c-2.9,0-5.2-2.4-5.2-5.2v-0.7
	C40.9,51.8,43.3,49.5,46.2,49.5z"/>
<path class="st1" d="M59.2,35.1h12.3c2.9,0,5.2,2.4,5.2,5.2v0.7c0,2.9-2.4,5.2-5.2,5.2H59.2c-2.9,0-5.2-2.4-5.2-5.2v-0.7
	C54,37.5,56.3,35.1,59.2,35.1z"/>
<path class="st2" d="M62.2,64h9.4c2.9,0,5.2,2.4,5.2,5.2v0.7c0,2.9-2.4,5.2-5.2,5.2h-9.4c-2.9,0-5.2-2.4-5.2-5.2v-0.7
	C56.9,66.3,59.3,64,62.2,64z"/>
<path class="st1" d="M48.7,75.2H30.6c-2.9,0-5.2-2.4-5.2-5.2v-0.7c0-2.9,2.4-5.2,5.2-5.2h18.1c2.9,0,5.2,2.4,5.2,5.2v0.7
	C54,72.8,51.6,75.2,48.7,75.2z"/>
<path class="st2" d="M35.8,29.4H10.4c-2.9,0-5.2-2.4-5.2-5.2v-0.7c0-2.9,2.4-5.2,5.2-5.2h25.4c2.9,0,5.2,2.4,5.2,5.2v0.7
	C41,27,38.7,29.4,35.8,29.4z"/>
<path class="st0" d="M22.8,43.7H10.4c-2.9,0-5.2-2.4-5.2-5.2v-0.7c0-2.9,2.4-5.2,5.2-5.2h12.3c2.9,0,5.2,2.4,5.2,5.2v0.7
	C28,41.3,25.7,43.7,22.8,43.7z"/>
<path class="st1" d="M19.8,14.9h-9.4c-2.9,0-5.2-2.4-5.2-5.2V8.9c0-2.9,2.4-5.2,5.2-5.2h9.4C22.7,3.7,25,6,25,8.9v0.7
	C25,12.5,22.7,14.9,19.8,14.9z"/>
<path class="st0" d="M33.2,3.7h18.1c2.9,0,5.2,2.4,5.2,5.2v0.7c0,2.9-2.4,5.2-5.2,5.2H33.2c-2.9,0-5.2-2.4-5.2-5.2V8.9
	C28,6,30.4,3.7,33.2,3.7z"/>
<path class="st3" d="M75.3,13L14.5,73.8c-2,2-5.4,2-7.4,0l-0.5-0.5c-2-2-2-5.4,0-7.4L67.3,5.1c2-2,5.4-2,7.4,0l0.5,0.5
	C77.3,7.7,77.3,11,75.3,13z"/>
</svg>
