<?xml version="1.0" encoding="utf-8"?>
<!-- Generator: Adobe Illustrator 23.0.0, SVG Export Plug-In . SVG Version: 6.00 Build 0)  -->
<svg version="1.1" id="Layer_1" xmlns="http://www.w3.org/2000/svg" xmlns:xlink="http://www.w3.org/1999/xlink" x="0px" y="0px"
	 viewBox="0 0 145.1 51.9" style="enable-background:new 0 0 145.1 51.9;" xml:space="preserve">
<style type="text/css">
	.st0{enable-background:new    ;}
	.st1{fill:#201F3F;}
	.st2{fill:#F3E07C;}
	.st3{fill:#EC65B7;}
	.st4{fill:#A86AE9;}
</style>
<title>full-logo</title>
<g class="st0">
	<path class="st1" d="M61.1,12.3L61.1,12.3c0-6.3,4.7-11.4,11.5-11.4c3.3,0,5.5,0.9,7.4,2.2c0.5,0.4,0.9,1.1,0.9,1.9
		c0,1.3-1.1,2.4-2.4,2.4c-0.7,0-1.1-0.3-1.4-0.5c-1.4-1-2.8-1.6-4.5-1.6c-3.7,0-6.4,3.1-6.4,6.8v0.1c0,3.8,2.6,6.9,6.4,6.9
		c2,0,3.4-0.6,4.8-1.7c0.4-0.3,0.9-0.5,1.4-0.5c1.2,0,2.3,1,2.3,2.2c0,0.8-0.4,1.4-0.8,1.7c-2,1.7-4.3,2.8-7.8,2.8
		C65.9,23.6,61.1,18.6,61.1,12.3z"/>
</g>
<g class="st0">
	<path class="st1" d="M81.8,14.9L81.8,14.9C81.8,10,85.7,6,91,6c5.2,0,9.1,3.9,9.1,8.7v0.1c0,4.8-3.9,8.8-9.1,8.8
		C85.7,23.6,81.8,19.7,81.8,14.9z M95.3,14.9L95.3,14.9c0-2.5-1.8-4.7-4.4-4.7c-2.7,0-4.4,2.1-4.4,4.6v0.1c0,2.5,1.8,4.6,4.4,4.6
		C93.7,19.5,95.3,17.3,95.3,14.9z"/>
	<path class="st1" d="M122,21c0,1.3-1.1,2.4-2.4,2.4s-2.4-1.1-2.4-2.4v-0.2c-1.2,1.6-2.8,2.7-5.2,2.7c-3.9,0-7.7-3.1-7.7-8.7v-0.1
		c0-5.6,3.7-8.7,7.7-8.7c2.5,0,4.1,1.2,5.2,2.5V2.5c0-1.3,1.1-2.4,2.4-2.4s2.4,1.1,2.4,2.4V21z M109.1,14.7L109.1,14.7
		c0,2.9,1.9,4.7,4.1,4.7s4.1-1.9,4.1-4.6v-0.1c0-2.8-1.9-4.6-4.1-4.6S109.1,11.9,109.1,14.7z"/>
	<path class="st1" d="M135.8,23.6c-5.1,0-8.8-3.6-8.8-8.7v-0.1c0-4.8,3.4-8.8,8.3-8.8c5.6,0,8.1,4.6,8.1,8.1c0,1.4-1,2.3-2.2,2.3
		h-9.5c0.5,2.2,2,3.3,4.1,3.3c1.3,0,2.4-0.4,3.4-1.1c0.3-0.3,0.7-0.4,1.2-0.4c1.1,0,1.9,0.8,1.9,1.9c0,0.6-0.3,1.1-0.6,1.4
		C140.2,22.8,138.3,23.6,135.8,23.6z M138.9,13.4c-0.3-2.1-1.5-3.6-3.5-3.6c-2,0-3.3,1.4-3.6,3.6H138.9z"/>
</g>
<g class="st0">
	<path class="st1" d="M61.1,33.2c0-1.3,1-2.3,2.3-2.3h7.3c2.4,0,4.2,0.6,5.4,1.8c0.9,0.9,1.4,2.1,1.4,3.5v0.1c0,2.3-1.2,3.6-2.7,4.4
		c2.4,0.9,3.9,2.3,3.9,5.1v0.1c0,3.8-3.1,5.7-7.7,5.7h-7.5c-1.3,0-2.3-1-2.3-2.3V33.2z M69.7,39.2c2,0,3.3-0.6,3.3-2.2V37
		c0-1.4-1.1-2.1-3-2.1h-4.5v4.4H69.7z M70.9,47.5c2,0,3.2-0.7,3.2-2.2v-0.1c0-1.4-1-2.2-3.4-2.2h-5.2v4.5H70.9z"/>
	<path class="st1" d="M81.9,37.8c0-1.2,1-2.2,2.2-2.2c1.2,0,2.2,1,2.2,2.2v0.7c0.6-1.5,1.7-2.9,3-2.9c1.4,0,2.2,0.9,2.2,2.2
		c0,1.2-0.8,1.9-1.7,2.1c-2.3,0.5-3.5,2.3-3.5,5.4v4.2c0,1.2-1,2.2-2.2,2.2c-1.2,0-2.2-1-2.2-2.2V37.8z"/>
	<path class="st1" d="M101.2,51.8c-4.7,0-8.2-3.3-8.2-8.2v-0.1c0-4.5,3.2-8.2,7.8-8.2c5.3,0,7.6,4.3,7.6,7.6c0,1.3-0.9,2.1-2.1,2.1
		h-8.9c0.4,2,1.9,3.1,3.9,3.1c1.2,0,2.3-0.4,3.2-1.1c0.3-0.2,0.6-0.4,1.1-0.4c1,0,1.7,0.8,1.7,1.8c0,0.6-0.3,1-0.6,1.3
		C105.3,51.1,103.5,51.8,101.2,51.8z M104.1,42.4c-0.3-2-1.4-3.4-3.3-3.4c-1.9,0-3.1,1.3-3.4,3.4H104.1z"/>
	<path class="st1" d="M110.8,47L110.8,47c0-3.5,2.6-5.1,6.4-5.1c1.6,0,2.7,0.3,3.9,0.6v-0.3c0-1.9-1.1-2.9-3.4-2.9
		c-1.2,0-2.2,0.2-3.1,0.4c-0.3,0.1-0.4,0.1-0.6,0.1c-1,0-1.9-0.8-1.9-1.8c0-0.8,0.5-1.5,1.2-1.7c1.4-0.5,2.9-0.8,5-0.8
		c2.4,0,4.2,0.6,5.3,1.8c1.2,1.2,1.7,2.9,1.7,5v7.2c0,1.2-1,2.1-2.2,2.1c-1.3,0-2.1-0.9-2.1-1.9v0c-1.1,1.2-2.6,2-4.8,2
		C113.3,51.8,110.8,50.1,110.8,47z M121.1,45.9v-0.8c-0.8-0.4-1.8-0.6-2.9-0.6c-1.9,0-3.1,0.8-3.1,2.2v0.1c0,1.2,1,1.9,2.4,1.9
		C119.7,48.7,121.1,47.6,121.1,45.9z"/>
	<path class="st1" d="M129.2,32.1c0-1.2,1-2.2,2.2-2.2s2.2,1,2.2,2.2v9.8l5.6-5.3c0.6-0.6,1.2-1,2-1c1.2,0,2,1,2,2
		c0,0.8-0.4,1.4-1,1.9l-3.5,3l4.2,5.7c0.4,0.5,0.6,0.9,0.6,1.4c0,1.2-1,2-2.1,2c-0.9,0-1.4-0.3-1.9-1l-3.9-5.4l-1.8,1.6v2.6
		c0,1.2-1,2.2-2.2,2.2s-2.2-1-2.2-2.2V32.1z"/>
</g>
<path class="st2" d="M29.7,33.2h18.4c2.1,0,3.8,1.7,3.8,3.8v0.5c0,2.1-1.7,3.7-3.8,3.7H29.7c-2.1,0-3.7-1.7-3.8-3.7V37
	c0-2,1.6-3.7,3.6-3.8C29.7,33.2,29.7,33.2,29.7,33.2z"/>
<path class="st3" d="M39.1,22.8H48c2.1,0,3.8,1.7,3.8,3.8v0.5c0,2.1-1.7,3.8-3.8,3.8h-8.9c-2.1,0-3.8-1.7-3.8-3.8v-0.5
	C35.4,24.5,37.1,22.8,39.1,22.8z"/>
<path class="st4" d="M41.3,43.7h6.8c2.1,0,3.8,1.7,3.8,3.8V48c0,2.1-1.7,3.8-3.8,3.8h-6.8c-2.1,0-3.8-1.7-3.8-3.8v-0.5
	c0-2,1.6-3.7,3.6-3.8C41.2,43.7,41.3,43.7,41.3,43.7z"/>
<path class="st3" d="M31.5,51.8H18.4c-2.1,0-3.8-1.7-3.8-3.8v-0.5c0-2.1,1.7-3.8,3.8-3.8h13.1c2.1,0,3.8,1.7,3.8,3.8v0.5
	C35.3,50.1,33.7,51.8,31.5,51.8C31.6,51.8,31.6,51.8,31.5,51.8z"/>
<path class="st4" d="M22.2,18.7H3.8c-2.1,0-3.8-1.7-3.8-3.8v-0.5c0-2.1,1.7-3.8,3.8-3.8h18.4c2.1,0,3.8,1.7,3.8,3.8v0.5
	C26,17,24.3,18.7,22.2,18.7z"/>
<path class="st2" d="M12.8,29h-9c-2.1,0-3.8-1.7-3.7-3.8v-0.5c0-2.1,1.7-3.8,3.8-3.8h8.9c2.1,0,3.8,1.7,3.8,3.8v0.5
	c0.1,2-1.5,3.7-3.5,3.8C12.9,29,12.9,29,12.8,29z"/>
<path class="st3" d="M10.6,8.2H3.8c-2.1,0-3.8-1.7-3.8-3.8V3.8c0-2.1,1.7-3.8,3.8-3.8h6.8c2.1,0,3.7,1.7,3.8,3.7c0,0,0,0,0,0.1v0.5
	C14.4,6.4,12.8,8.2,10.6,8.2C10.7,8.2,10.6,8.2,10.6,8.2z"/>
<path class="st2" d="M20.3,0.1h13.1c2.1,0,3.8,1.7,3.8,3.8v0.5c0,2.1-1.7,3.8-3.8,3.8H20.3c-2.1,0-3.8-1.7-3.8-3.8V3.8
	C16.6,1.8,18.2,0.1,20.3,0.1z"/>
<path class="st1" d="M50.8,6.8l-44,44c-1.5,1.5-3.9,1.5-5.3,0l-0.4-0.4c-1.4-1.5-1.4-3.9,0-5.4L45,1.1c1.5-1.4,3.9-1.4,5.4,0
	l0.4,0.4C52.2,2.9,52.3,5.3,50.8,6.8C50.8,6.8,50.8,6.8,50.8,6.8z"/>
</svg>
