<?xml version="1.0" encoding="utf-8"?>
<!-- Generator: Adobe Illustrator 23.0.0, SVG Export Plug-In . SVG Version: 6.00 Build 0)  -->
<svg version="1.1" id="Capa_1" xmlns="http://www.w3.org/2000/svg" xmlns:xlink="http://www.w3.org/1999/xlink" x="0px" y="0px"
	 viewBox="0 0 512 512" style="enable-background:new 0 0 512 512;" xml:space="preserve">
<style type="text/css">
	.st0{fill:#201F3F;}
</style>
<g>
	<g>
		<path class="st0" d="M302.5,165.2c-2.3-1.9-5.3-2.8-8.2-2.6h-44.9l42.2-47.1l4-4.4l2-2.6c0.7-1,1.3-2.1,1.7-3.2
			c0.5-1.2,0.7-2.5,0.7-3.8c0.3-3.1-1.2-6.1-4-7.7c-3.5-1.6-7.4-2.3-11.2-2.1h-52.5c-2.8-0.2-5.6,0.6-7.8,2.4
			c-1.8,1.6-2.9,3.9-2.8,6.3c0,3.6,1.2,5.8,3.6,6.6c3.5,1,7.1,1.4,10.7,1.3h34.2c-1.4,2-3.3,4.3-5.6,7.1l-8.8,9.8L244.1,138
			l-13.8,15.3c-4.8,5.3-7.9,8.9-9.4,10.7c-3.4,4.1-3,10.2,1,13.8c2.8,2.1,6.3,3.1,9.8,2.9h62.4c3,0.2,6-0.6,8.3-2.5
			c1.8-1.6,2.8-3.9,2.8-6.3C305.4,169.3,304.3,166.9,302.5,165.2z"/>
	</g>
</g>
<g>
	<g>
		<path class="st0" d="M397.1,219.8c-1.9-1.5-4.2-2.2-6.6-2h-35.9l33.7-37.6l3.2-3.5l2-2.5c0.6-0.8,1-1.7,1.4-2.6
			c0.4-1,0.6-2,0.6-3.1c0.3-2.5-0.9-4.9-3.1-6.2c-2.8-1.3-5.9-1.9-9-1.7h-42.3c-2.2-0.1-4.4,0.6-6.2,1.9c-1.5,1.2-2.3,3.1-2.2,5
			c0,2.9,1,4.6,2.9,5.3c2.8,0.8,5.7,1.1,8.6,1h27.4c-1.1,1.6-2.6,3.4-4.5,5.7l-7.1,7.9l-9.2,10.7L340,210.3
			c-3.8,4.3-6.4,7.2-7.6,8.8c-2.5,3.2-2.2,7.8,0.7,10.7c2.2,1.7,5,2.5,7.8,2.2h49.6c2.4,0.2,4.7-0.5,6.6-1.9c1.4-1.3,2.2-3.1,2.1-5
			C399.4,223.1,398.6,221.2,397.1,219.8z"/>
	</g>
</g>
<g>
	<g>
		<path class="st0" d="M509.2,159.8c-2.3-1.9-5.3-2.8-8.2-2.6h-45.2l42.2-47.1l4-4.4l2.6-3.1c0.7-1,1.3-2.1,1.7-3.2
			c0.5-1.2,0.7-2.5,0.7-3.8c0.3-3.1-1.2-6.1-4-7.7c-3.5-1.6-7.4-2.3-11.2-2.1h-53c-2.8-0.2-5.6,0.6-7.8,2.4
			c-1.8,1.6-2.9,3.9-2.8,6.3c0,3.6,1.2,5.8,3.6,6.6c3.5,1,7.1,1.4,10.7,1.3h34.2c-1.4,2-3.3,4.3-5.6,7.1l-8.9,10l-11.5,12.8
			L437,147.5c-4.8,5.3-7.9,8.9-9.4,10.7c-3.4,4.1-3,10.2,1,13.8c2.8,2.1,6.3,3.1,9.8,2.9h62.3c3,0.4,6.1-0.4,8.6-2.1
			c1.8-1.6,2.8-3.9,2.8-6.3C512.1,163.9,511.1,161.5,509.2,159.8z"/>
	</g>
</g>
<g>
	<g>
		<path class="st0" d="M472.3,339.8c-3-3.2-7.7-4.1-11.8-2.5c-115.9,48-248.7-7.1-296.6-122.9c-24.4-58.8-22.9-125.2,4.1-182.9
			c2.5-5.3,0.2-11.7-5.1-14.2c-2.7-1.3-5.9-1.4-8.7-0.2C27.2,69.2-33.5,214.5,18.7,341.5S216.2,529.2,343.2,477
			c57.9-23.8,104.7-68.6,131.1-125.4C476.1,347.7,475.4,343,472.3,339.8z M248.8,474.5c-125.6,0-227.3-101.8-227.3-227.4
			c0-82.5,44.7-158.4,116.7-198.6c-8.5,25.3-12.9,51.9-12.8,78.6c0,137.4,111.4,248.7,248.8,248.7c23,0,45.9-3.2,68.1-9.5
			C400.7,433.3,327.6,474.2,248.8,474.5z"/>
	</g>
</g>
</svg>
