<?xml version="1.0" encoding="utf-8"?>
<!-- Generator: Adobe Illustrator 23.0.0, SVG Export Plug-In . SVG Version: 6.00 Build 0)  -->
<svg version="1.1" id="Layer_1" xmlns="http://www.w3.org/2000/svg" xmlns:xlink="http://www.w3.org/1999/xlink" x="0px" y="0px"
	 viewBox="0 0 511 511" style="enable-background:new 0 0 511 511;" xml:space="preserve">
<style type="text/css">
	.st0{fill:#201F3F;}
</style>
<g>
	<g>
		<path class="st0" d="M298.2,25.1h-85.3c-4.7,0-8.5,3.8-8.5,8.5s3.8,8.5,8.5,8.5h85.3c4.7,0,8.5-3.8,8.5-8.5
			C306.7,28.9,302.9,25.1,298.2,25.1z"/>
	</g>
</g>
<g>
	<g>
		<path class="st0" d="M357.9,25.1h-8.5c-4.7,0-8.5,3.8-8.5,8.5s3.8,8.5,8.5,8.5h8.5c4.7,0,8.5-3.8,8.5-8.5
			C366.4,28.9,362.6,25.1,357.9,25.1z"/>
	</g>
</g>
<g>
	<g>
		<path class="st0" d="M266.1,434.7h-21.2c-13,0-23.5,10.6-23.5,23.5v4.1c0,13,10.6,23.5,23.5,23.5h21.2c13,0,23.5-10.6,23.5-23.5
			v-4.1C289.6,445.3,279.1,434.7,266.1,434.7z M272.6,462.4c0,3.6-2.9,6.5-6.5,6.5h-21.2c-3.6,0-6.5-2.9-6.5-6.5v-4.1
			c0-3.6,2.9-6.5,6.5-6.5h21.2c3.6,0,6.5,2.9,6.5,6.5V462.4z"/>
	</g>
</g>
<g>
	<g>
		<path class="st0" d="M369.7-0.5H141.3c-17,0-30.8,13.8-30.8,30.8v450.3c0,17,13.8,30.8,30.8,30.8h228.4c17,0,30.8-13.8,30.8-30.8
			V30.3C400.6,13.3,386.7-0.5,369.7-0.5z M383.5,480.7c0,7.6-6.2,13.8-13.8,13.8H141.3c-7.6,0-13.8-6.2-13.8-13.8V30.3
			c0-7.6,6.2-13.8,13.8-13.8h228.4c7.6,0,13.8,6.2,13.8,13.8L383.5,480.7L383.5,480.7z"/>
	</g>
</g>
<g>
	<g>
		<path class="st0" d="M392,50.7H119c-4.7,0-8.5,3.8-8.5,8.5v358.4c0,4.7,3.8,8.5,8.5,8.5H392c4.7,0,8.5-3.8,8.5-8.5V59.2
			C400.6,54.5,396.7,50.7,392,50.7z M383.5,409.1h-256V67.8h256V409.1z"/>
	</g>
</g>
</svg>
