<?xml version="1.0" encoding="utf-8"?>
<!-- Generator: Adobe Illustrator 23.0.0, SVG Export Plug-In . SVG Version: 6.00 Build 0)  -->
<svg version="1.1" id="Capa_1" xmlns="http://www.w3.org/2000/svg" xmlns:xlink="http://www.w3.org/1999/xlink" x="0px" y="0px"
	 viewBox="0 0 512 512" style="enable-background:new 0 0 512 512;" xml:space="preserve">
<style type="text/css">
	.st0{fill:#201F3F;}
</style>
<g>
	<g>
		<path class="st0" d="M303.3,56.4c-11.8-17.4-22.3-33.4-32-48c-1.4-2.1-3.5-4.2-5.6-5.6c-8.3-5.6-19.5-2.8-25,5.6
			c-9,14.6-19.5,29.9-32,48c-54.9,80.7-137,202.4-137,271.9c0,50.8,20.9,96.7,54.2,130.1C159.3,491.1,205.2,512,256,512
			s96.7-20.9,130.1-54.2s54.2-79.3,54.2-130.1C440.3,258.1,358.2,137.1,303.3,56.4z M361,432.7c-27.1,27.1-64,43.1-105,43.1
			s-77.9-16.7-105-43.1c-27.1-27.1-43.1-64-43.1-105c0-58.4,78.6-174.6,130.8-251.8c6.3-9,11.8-18.1,17.4-25.7
			c5.6,7.7,11.1,16.7,17.4,25.7c52.2,77.9,130.8,193.3,130.8,251.8C404.1,368.7,387.4,405.6,361,432.7z"/>
	</g>
</g>
<g>
	<g>
		<path class="st0" d="M363.8,315.2c-9.7-0.7-18.1,7-18.8,16.7c-0.7,15.3-5.6,29.9-13.2,42.4c-7.7,12.5-18.8,23.6-32,30.6
			c-8.3,4.9-11.8,16-7,24.3c5.6,9.7,16.7,12.5,25,7.7c18.8-10.4,34.1-25.7,44.5-43.1c11.1-17.4,17.4-38.3,18.1-59.8
			C381.2,324.2,373.5,315.9,363.8,315.2z"/>
	</g>
</g>
</svg>
