<?xml version="1.0" encoding="utf-8"?>
<!-- Generator: Adobe Illustrator 23.0.0, SVG Export Plug-In . SVG Version: 6.00 Build 0)  -->
<svg version="1.1" id="Layer_1" xmlns="http://www.w3.org/2000/svg" xmlns:xlink="http://www.w3.org/1999/xlink" x="0px" y="0px"
	 viewBox="0 0 511 511" style="enable-background:new 0 0 511 511;" xml:space="preserve">
<style type="text/css">
	.st0{fill:#201F3F;}
</style>
<g>
	<g>
		<path class="st0" d="M477.4,10.9H33.6c-18.8,0-34.1,15.3-34.1,34.1v281.6c0,4.7,3.8,8.5,8.5,8.5H503c4.7,0,8.5-3.8,8.5-8.5V45.1
			C511.5,26.3,496.2,10.9,477.4,10.9z M494.4,318.1H16.6V45.1c0-9.4,7.7-17.1,17.1-17.1h443.7c9.4,0,17.1,7.7,17.1,17.1V318.1z"/>
	</g>
</g>
<g>
	<g>
		<path class="st0" d="M503,318.1H8c-4.7,0-8.5,3.8-8.5,8.5v42.7c0,18.8,15.3,34.1,34.1,34.1h443.7c18.8,0,34.1-15.3,34.1-34.1
			v-42.7C511.5,322,507.7,318.1,503,318.1z M494.4,369.3c0,9.4-7.7,17.1-17.1,17.1H33.6c-9.4,0-17.1-7.7-17.1-17.1v-34.1h477.9
			L494.4,369.3L494.4,369.3z"/>
	</g>
</g>
<g>
	<g>
		<path class="st0" d="M281.1,352.3h-51.2c-4.7,0-8.5,3.8-8.5,8.5s3.8,8.5,8.5,8.5h51.2c4.7,0,8.5-3.8,8.5-8.5
			S285.8,352.3,281.1,352.3z"/>
	</g>
</g>
<g>
	<g>
		<path class="st0" d="M468.8,45.1H42.2c-4.7,0-8.5,3.8-8.5,8.5v273.1c0,4.7,3.8,8.5,8.5,8.5h426.7c4.7,0,8.5-3.8,8.5-8.5V53.6
			C477.4,48.9,473.5,45.1,468.8,45.1z M460.3,318.1H50.7v-256h409.6L460.3,318.1L460.3,318.1z"/>
	</g>
</g>
<g>
	<g>
		<path class="st0" d="M366.4,454.7H144.6c-14.1,0-25.6,11.5-25.6,25.6s11.5,25.6,25.6,25.6h221.9c14.1,0,25.6-11.5,25.6-25.6
			S380.5,454.7,366.4,454.7z M366.4,488.8H144.6c-4.7,0-8.5-3.8-8.5-8.5s3.8-8.5,8.5-8.5h221.9c4.7,0,8.5,3.8,8.5,8.5
			S371.1,488.8,366.4,488.8z"/>
	</g>
</g>
<g>
	<g>
		<path class="st0" d="M349.4,454.7c-28.3,0-42.7-20.1-42.7-59.7c0-4.7-3.8-8.5-8.5-8.5h-85.3c-4.7,0-8.5,3.8-8.5,8.5
			c0,39.6-14.4,59.7-42.7,59.7c-4.7,0-8.5,3.8-8.5,8.5s3.8,8.5,8.5,8.5h187.7c4.7,0,8.5-3.8,8.5-8.5S354.1,454.7,349.4,454.7z
			 M203.2,454.7c10.5-11.6,16.7-29,17.9-51.2h68.7c1.2,22.2,7.4,39.6,17.9,51.2H203.2z"/>
	</g>
</g>
<g>
	<g>
		<path class="st0" d="M407.3,262.4l-20.6-20.6l11.5-11.5c2.1-2.1,3-5.2,2.2-8.1c-0.7-2.9-2.9-5.2-5.8-6.1l-85.3-25.6
			c-3-0.9-6.3-0.1-8.5,2.1c-2.2,2.2-3,5.5-2.1,8.5l25.6,85.3c0.9,2.9,3.2,5.1,6.1,5.8c2.9,0.7,6-0.1,8.1-2.2l12.1-12.1l20.6,20.6
			c1.6,1.6,3.8,2.5,6,2.5s4.4-0.9,6-2.5l24.1-24.1C410.6,271.1,410.6,265.7,407.3,262.4z M377.1,280.5l-18.8-18.8
			c-2.2-2.2-5-3.3-7.9-3.3c-2.9,0-5.7,1.1-7.9,3.3l-6.2,6.2l-16.9-56.5l56.5,16.9l-6.6,6.6c-1.8,1.8-2.8,4.2-2.8,6.8
			c0,2.6,1,5,2.8,6.8l19.8,19.8L377.1,280.5z"/>
	</g>
</g>
<g>
	<g>
		<path class="st0" d="M357.9,79.2H119c-4.7,0-8.5,3.8-8.5,8.5v42.7c0,4.7,3.8,8.5,8.5,8.5h238.9c4.7,0,8.5-3.8,8.5-8.5V87.7
			C366.4,83,362.6,79.2,357.9,79.2z M349.4,121.9H127.5V96.3h221.9V121.9z"/>
	</g>
</g>
<g>
	<g>
		<path class="st0" d="M221.4,173.1h-68.3c-4.7,0-8.5,3.8-8.5,8.5v34.1c0,4.7,3.8,8.5,8.5,8.5h68.3c4.7,0,8.5-3.8,8.5-8.5v-34.1
			C229.9,176.9,226.1,173.1,221.4,173.1z M212.8,207.2h-51.2v-17.1h51.2V207.2z"/>
	</g>
</g>
<g>
	<g>
		<path class="st0" d="M357.9,79.2H119c-4.7,0-8.5,3.8-8.5,8.5v162.1c0,4.7,3.8,8.5,8.5,8.5h203.1c2.7,0,5.2-1.3,6.8-3.4
			c1.6-2.2,2.1-5,1.3-7.6l-10.8-36l36,10.8c2.6,0.8,5.4,0.3,7.5-1.3c2.2-1.6,3.4-4.1,3.4-6.8V87.7C366.4,83,362.6,79.2,357.9,79.2z
			 M349.4,202.5l-40.2-12c-3-0.9-6.3-0.1-8.5,2.1c-2.2,2.2-3,5.5-2.1,8.5l12.1,40.2H127.5V96.3h221.9V202.5z"/>
	</g>
</g>
</svg>
