<?xml version="1.0" encoding="utf-8"?>
<!-- Generator: Adobe Illustrator 23.0.0, SVG Export Plug-In . SVG Version: 6.00 Build 0)  -->
<svg version="1.1" id="Layer_1" xmlns="http://www.w3.org/2000/svg" xmlns:xlink="http://www.w3.org/1999/xlink" x="0px" y="0px"
	 viewBox="0 0 109 108.9" style="enable-background:new 0 0 109 108.9;" xml:space="preserve">
<style type="text/css">
	.st0{fill:#0C1450;}
</style>
<path class="st0" d="M40.2,60.4l0.8,1.3l-3.7,11.9l-7.8,12.2c-2.1,3.3-1.1,7.8,2.3,9.9c1.1,0.7,2.5,1.1,3.8,1.1
	c2.5,0,4.7-1.3,6.1-3.3L49,81.7c0.3-0.3,0.5-0.7,0.8-1l0,9c0,3.9,3.2,7.1,7.2,7.1h0h0c3.9,0,7.1-3.3,7.1-7.2l0-13.8
	c0-0.2,0-0.3,0-0.4c0.1-1.4-0.2-2.8-0.9-4L56.5,60l0.6-2l0,0l0-0.1h0l0.1-0.2l0,0l0,0l0-0.1c0,0,0-0.1,0-0.1l0.2-0.9l1.8-6.4
	c0.1,0.1,0.2,0.1,0.3,0.2c0.8,0.5,1.8,0.9,2.7,1l11.3,1.4c0.3,0,0.5,0.1,0.8,0.1c3.3,0,6.2-2.5,6.6-5.8c0.2-1.8-0.3-3.5-1.4-4.9
	c-1.1-1.4-2.7-2.3-4.4-2.5l-9.5-1.2L62,35c-0.3-0.9-0.6-1.7-1.1-2.4c3.9-1.6,6.7-5.4,6.7-9.8c0-5.8-4.7-10.6-10.6-10.6
	s-10.6,4.7-10.6,10.6c0,2.4,0.8,4.6,2.2,6.4c-0.9,0.5-1.8,1.1-2.5,1.8l-8.1,3.5c-0.4,0.2-0.9,0.4-1.3,0.8c-0.9,0.5-1.6,1.2-2.1,2
	l-6.2,9.5c-1,1.5-1.3,3.3-0.9,5c0.4,1.7,1.4,3.2,2.9,4.2c1.1,0.7,2.3,1.1,3.6,1.1c1.8,0,3.5-0.7,4.7-1.9c0,0,0,0.1,0,0.1
	c0,1.3,0.3,2.6,0.9,3.7C39.6,59.4,39.9,59.9,40.2,60.4z M57,30.3c-4.2,0-7.6-3.4-7.6-7.6c0-4.2,3.4-7.6,7.6-7.6s7.6,3.4,7.6,7.6
	C64.5,26.9,61.1,30.3,57,30.3z M55.4,31.7C55.4,31.7,55.4,31.7,55.4,31.7C55.4,31.7,55.4,31.7,55.4,31.7z M60.2,47l1.7-6.2v0
	c0.1-0.6,0.2-1.1,0.2-1.6l2.4,2.1l10.4,1.3c2,0.2,3.4,2,3.1,4c-0.2,1.8-1.8,3.2-3.6,3.2c-0.1,0-0.3,0-0.4,0l-11.3-1.4
	c-0.6-0.1-1.1-0.3-1.6-0.6c-0.3-0.1-0.6-0.3-0.8-0.5L60.2,47z M49.9,71.1L49.9,71.1l-5.6-9.8l0,0l-1.5-2.6c0-0.1-0.1-0.1-0.1-0.2
	l-0.5-0.9c0-0.1-0.1-0.1-0.1-0.2l0,0c-0.4-0.7-0.6-1.5-0.6-2.3c0-0.7,0-1.3,0.2-2l2.9-10.4l-2,0.9l-5.7,8.8c-0.7,1.1-1.9,1.6-3,1.6
	c-0.7,0-1.4-0.2-2-0.6c-1.7-1.1-2.2-3.3-1.1-5l6.2-9.5c0.3-0.5,0.8-0.9,1.3-1.2c0.2-0.2,0.5-0.4,0.8-0.5l8.7-3.7
	c1.2-1.4,3.1-2.3,5-2.3c0.6,0,1.1,0.1,1.7,0.2c0.1,0,0.2,0.1,0.2,0.1c0.3,0.1,0.9,0.4,1.6,0.7c0.2,0.2,0.5,0.3,0.7,0.5c0,0,0,0,0,0
	c0.5,0.4,0.9,0.8,1.2,1.3c0,0,0,0,0,0c0.5,0.8,0.9,1.6,1,2.5c0.2,0.9,0.1,1.9-0.1,2.8l-4.7,17.1h0c0,0,0,0.1,0,0.1c0,0,0,0,0,0
	l-1.1,3.7l7.3,12.6c0.5,0.8,0.6,1.7,0.5,2.5c0,0.1,0,0.2,0,0.3l0,13.8c0,2.3-1.8,4.2-4.1,4.2c0,0,0,0,0,0c-2.3,0-4.1-1.8-4.2-4.1
	l0-13.6L49.9,71.1z M43,65.2l5.6,9.8l-1,3.3c-0.2,0.6-0.5,1.2-1,1.6l-7.7,12c-0.8,1.3-2.1,1.9-3.5,1.9c-0.8,0-1.5-0.2-2.2-0.6
	c-1.9-1.2-2.5-3.8-1.3-5.7l8-12.6L43,65.2z"/>
</svg>
