<?xml version="1.0" encoding="utf-8"?>
<!-- Generator: Adobe Illustrator 22.1.0, SVG Export Plug-In . SVG Version: 6.00 Build 0)  -->
<svg version="1.1" id="Layer_1" xmlns="http://www.w3.org/2000/svg" xmlns:xlink="http://www.w3.org/1999/xlink" x="0px" y="0px"
	 viewBox="0 0 1920 650" style="enable-background:new 0 0 1920 650;" xml:space="preserve">
<style type="text/css">
	.st0{fill:#FFC6B0;}
	.st1{fill:url(#SVGID_1_);}
	.st2{fill:#C559F8;}
	.st3{fill:url(#SVGID_2_);}
	.st4{fill:#FFD4E6;}
	.st5{fill:#FCDA4F;}
	.st6{fill:url(#SVGID_3_);}
	.st7{fill:url(#SVGID_4_);}
	.st8{fill:#FFD14E;}
	.st9{fill:none;}
	.st10{fill:url(#SVGID_5_);}
</style>
<path class="st0" d="M1593.7-2h-566.8h-76.2H0v432.2v124.2V626c0,0,149-85.8,381-133.8c92.3-19.1,197.7-32.2,312.1-31.5
	c47.2,0.3,96,2.8,146,8.3c10.6,1.2,21.1,2.2,31.5,3.2c459.6,45.2,798.1-39,959.6-173.3V-2H1593.7z"/>
<linearGradient id="SVGID_1_" gradientUnits="userSpaceOnUse" x1="129.6136" y1="-131.6136" x2="836.4865" y2="575.2592">
	<stop  offset="0" style="stop-color:#FFDEA1"/>
	<stop  offset="1" style="stop-color:#FF81D4"/>
</linearGradient>
<path class="st1" d="M760.3,414.3c35.5-16.7,84.4-32.1,151.5-43.4c176.5-29.8,254.8-79.2,229.4-180.5c-0.5,0.2-1,0.4-1.5,0.6
	C1047.1,229.6,979.7,79.4,950.7-2H0v432.2C106.4,398.5,477.1,303,760.3,414.3z M935.5,134.3c0,0,56.7,20.3,26.4,58.8
	S905.3,137.6,935.5,134.3z"/>
<path class="st2" d="M974.6,380.7c-13.2,39.2,125.5,58.9,92.5,0C1034.1,321.8,974.6,380.7,974.6,380.7z"/>
<linearGradient id="SVGID_2_" gradientUnits="userSpaceOnUse" x1="380.142" y1="361.8375" x2="380.142" y2="554.3911">
	<stop  offset="0" style="stop-color:#FFBCD1"/>
	<stop  offset="1" style="stop-color:#FFB2D1"/>
</linearGradient>
<path class="st3" d="M381,492.2c92.3-19.1,197.7-32.2,312.1-31.5c14-15.2,35.2-31.3,67.2-46.4C477.1,303,106.4,398.5,0,430.2v124.2
	C61.6,530.3,235.2,470.2,381,492.2z"/>
<path class="st4" d="M0,554.4V626c0,0,149-85.8,381-133.8C235.2,470.2,61.6,530.3,0,554.4z"/>
<path class="st2" d="M974.6,380.7c-13.2,39.2,125.5,58.9,92.5,0C1034.1,321.8,974.6,380.7,974.6,380.7z"/>
<path class="st5" d="M961.9,193.1c30.3-38.4-26.4-58.8-26.4-58.8C905.3,137.6,931.6,231.5,961.9,193.1z"/>
<path class="st2" d="M974.6,380.7c-13.2,39.2,125.5,58.9,92.5,0C1034.1,321.8,974.6,380.7,974.6,380.7z"/>
<linearGradient id="SVGID_3_" gradientUnits="userSpaceOnUse" x1="950.6785" y1="111.8833" x2="1667.1235" y2="111.8833">
	<stop  offset="0" style="stop-color:#FFD14E"/>
	<stop  offset="0.2202" style="stop-color:#FFCB43"/>
	<stop  offset="1" style="stop-color:#FFB820"/>
</linearGradient>
<path class="st6" d="M1593.7-2h-16.5h-550.4h-76.2c29,81.4,96.4,231.6,189.1,193c0.5-0.2,1-0.4,1.5-0.6c3.6-1.5,7.3-3,11.1-4.4
	c1.2-0.5,2.4-0.9,3.7-1.4c2.6-1,5.2-1.9,7.9-2.9c1.4-0.5,2.9-1,4.4-1.5c2.5-0.9,5.1-1.7,7.7-2.6c1.5-0.5,3-1,4.5-1.5
	c2.8-0.9,5.7-1.8,8.6-2.6c1.3-0.4,2.6-0.8,3.9-1.2c4-1.2,8.1-2.3,12.3-3.4c1.4-0.4,2.9-0.7,4.3-1.1c2.8-0.7,5.7-1.5,8.6-2.2
	c1.9-0.5,3.8-0.9,5.7-1.4c2.5-0.6,4.9-1.1,7.4-1.7c2.1-0.5,4.2-0.9,6.2-1.4c2.4-0.5,4.7-1,7.1-1.5c2.2-0.4,4.3-0.9,6.5-1.3
	c2.4-0.4,4.7-0.9,7.1-1.3c4.3-0.8,8.7-1.5,13-2.2c2-0.3,4.1-0.7,6.1-1c2.7-0.4,5.4-0.8,8.1-1.1c1.9-0.3,3.8-0.5,5.7-0.8
	c2.8-0.4,5.7-0.7,8.5-1c1.8-0.2,3.5-0.4,5.3-0.6c3-0.3,6-0.6,9-0.9c1.4-0.1,2.9-0.2,4.3-0.4c11.5-1,23-1.7,34.6-2.1
	c0.5,0,1,0,1.5-0.1c3.6-0.1,7.3-0.2,10.9-0.2c1.1,0,2.1,0,3.2,0c3.6,0,7.2,0,10.8,0c0.9,0,1.9,0,2.8,0c16.8,0.3,33.7,1.2,50.4,2.9
	c0.2,0,0.5,0,0.7,0.1c4,0.4,8,0.9,11.9,1.4c0.6,0.1,1.3,0.2,1.9,0.2c4,0.5,7.9,1.1,11.9,1.7c0.3,0,0.6,0.1,0.8,0.1
	c16.8,2.6,33.4,6.1,49.6,10.5c0.5,0.1,1,0.3,1.5,0.4c3.7,1,7.4,2.1,11.1,3.2c0.6,0.2,1.2,0.4,1.9,0.6c3.8,1.2,7.5,2.4,11.2,3.6
	c6.9,2.3,13.6,4.9,20.3,7.6c0.4,0.2,0.9,0.3,1.3,0.5c6.7,2.7,13.4,5.6,19.9,8.8c0.2,0.1,0.5,0.2,0.7,0.4c5.8,2.8,11.4,5.7,17,8.8
	c1.4,0.8,2.8,1.5,4.2,2.3c5.8,3.3,11.6,6.8,17.2,10.5C1721.3,280.4,1638.9,91.6,1593.7-2z"/>
<linearGradient id="SVGID_4_" gradientUnits="userSpaceOnUse" x1="693.1079" y1="315.6905" x2="1534.955" y2="315.6905">
	<stop  offset="0" style="stop-color:#FF80BB"/>
	<stop  offset="0.4848" style="stop-color:#FF5BBB"/>
	<stop  offset="0.9987" style="stop-color:#FF38BB"/>
</linearGradient>
<path class="st7" d="M1523.7,168.1c-0.6-0.2-1.2-0.4-1.9-0.6c-3.7-1.1-7.4-2.2-11.1-3.2c-0.5-0.1-1-0.3-1.5-0.4
	c-16.2-4.4-32.8-7.9-49.6-10.5c-0.3,0-0.6-0.1-0.8-0.1c-3.9-0.6-7.9-1.2-11.9-1.7c-0.6-0.1-1.3-0.2-1.9-0.2c-4-0.5-7.9-1-11.9-1.4
	c-0.2,0-0.5,0-0.7-0.1c-16.7-1.7-33.6-2.7-50.4-2.9c-0.9,0-1.9,0-2.8,0c-3.6,0-7.2,0-10.8,0c-1.1,0-2.1,0-3.2,0
	c-3.6,0-7.3,0.1-10.9,0.2c-0.5,0-1,0-1.5,0.1c-11.6,0.4-23.2,1.1-34.6,2.1c-1.4,0.1-2.9,0.2-4.3,0.4c-3,0.3-6,0.6-9,0.9
	c-1.8,0.2-3.5,0.4-5.3,0.6c-2.8,0.3-5.7,0.7-8.5,1c-1.9,0.2-3.8,0.5-5.7,0.8c-2.7,0.4-5.4,0.7-8.1,1.1c-2,0.3-4.1,0.6-6.1,1
	c-4.4,0.7-8.7,1.4-13,2.2c-2.4,0.4-4.7,0.8-7.1,1.3c-2.2,0.4-4.4,0.9-6.5,1.3c-2.4,0.5-4.8,1-7.1,1.5c-2.1,0.4-4.2,0.9-6.2,1.4
	c-2.5,0.6-4.9,1.1-7.4,1.7c-1.9,0.5-3.8,0.9-5.7,1.4c-2.9,0.7-5.7,1.4-8.6,2.2c-1.4,0.4-2.9,0.7-4.3,1.1c-4.1,1.1-8.2,2.3-12.3,3.4
	c-1.3,0.4-2.6,0.8-3.9,1.2c-2.9,0.9-5.7,1.7-8.6,2.6c-1.5,0.5-3,1-4.5,1.5c-2.6,0.8-5.2,1.7-7.7,2.6c-1.5,0.5-2.9,1-4.4,1.5
	c-2.7,0.9-5.3,1.9-7.9,2.9c-1.2,0.5-2.5,0.9-3.7,1.4c-3.8,1.4-7.5,2.9-11.1,4.4c25.4,101.3-52.9,150.6-229.4,180.5
	c-67.1,11.3-116,26.7-151.5,43.4c-32,15-53.2,31.1-67.2,46.4c47.2,0.3,96,2.8,146,8.3c10.6,1.2,21.1,2.2,31.5,3.2
	c189.5,18.6,358.3,15.2,502.7-4.6c-99.4-19.8-185.7-42.1-230.3-51c-132.1-26.2-6.6-91.6,237.9-143.9c77.5-16.6,125.1-55.6,154-101
	C1531.2,170.5,1527.5,169.3,1523.7,168.1z M974.6,380.7c0,0,59.5-58.9,92.5,0C1100.1,439.6,961.4,419.9,974.6,380.7z"/>
<path class="st8" d="M1683.3,253.1c30.5,5.5,25.3-31.7,25.3-31.7C1698,205.7,1652.8,247.7,1683.3,253.1z"/>
<path class="st9" d="M1683.3,253.1c30.5,5.5,25.3-31.7,25.3-31.7C1698,205.7,1652.8,247.7,1683.3,253.1z"/>
<linearGradient id="SVGID_5_" gradientUnits="userSpaceOnUse" x1="1089.6383" y1="250.9435" x2="1916.7765" y2="250.9435">
	<stop  offset="0" style="stop-color:#B840F1"/>
	<stop  offset="1" style="stop-color:#D162F1"/>
</linearGradient>
<path class="st10" d="M1771.2-2h-177.5c45.1,93.6,127.6,282.4,21.8,212.6c-5.6-3.7-11.4-7.1-17.2-10.5c-1.4-0.8-2.8-1.6-4.2-2.3
	c-5.6-3.1-11.2-6.1-17-8.8c-0.2-0.1-0.5-0.3-0.7-0.4c-6.5-3.1-13.2-6-19.9-8.8c-0.4-0.2-0.9-0.3-1.3-0.5c-6.7-2.7-13.5-5.2-20.3-7.6
	c-28.9,45.5-76.5,84.4-154,101c-244.5,52.3-370,117.8-237.9,143.9c44.7,8.8,130.9,31.2,230.3,51c194.6,38.8,439.8,68.2,522.9-31.4
	c48.6-58.3,4.1-203.9-66.1-337.6C1811.9,63.7,1791.8,29.6,1771.2-2z M1683.3,253.1c-30.5-5.5,14.7-47.4,25.3-31.7
	C1708.6,221.4,1713.8,258.6,1683.3,253.1z"/>
</svg>
